EBGaramondVF-yopaqueMin.ufo
<glyph name="numbersign" format="1">
  <advance width="468"/>
  <unicode hex="0023"/>
  <outline>
    <contour>
      <point x="70" y="-79"/>
      <point x="72" y="-77"/>
      <point x="74" y="-70" type="curve" smooth="yes"/>
      <point x="119" y="115" type="line"/>
      <point x="265" y="121" type="line"/>
      <point x="221" y="-57" type="line"/>
      <point x="220" y="-64" type="line"/>
      <point x="220" y="-67"/>
      <point x="221" y="-68"/>
      <point x="223" y="-68" type="curve" smooth="yes"/>
      <point x="227" y="-68"/>
      <point x="230" y="-66"/>
      <point x="231" y="-60" type="curve" smooth="yes"/>
      <point x="276" y="123" type="line"/>
      <point x="346" y="126" type="line" smooth="yes"/>
      <point x="368" y="127"/>
      <point x="377" y="164"/>
      <point x="377" y="174" type="curve" smooth="yes"/>
      <point x="377" y="181"/>
      <point x="371" y="186"/>
      <point x="364" y="186" type="curve"/>
      <point x="291" y="183" type="line"/>
      <point x="325" y="321" type="line"/>
      <point x="393" y="324" type="line" smooth="yes"/>
      <point x="415" y="325"/>
      <point x="424" y="363"/>
      <point x="424" y="373" type="curve" smooth="yes"/>
      <point x="424" y="380"/>
      <point x="418" y="384"/>
      <point x="411" y="384" type="curve"/>
      <point x="340" y="381" type="line"/>
      <point x="383" y="558" type="line" smooth="yes"/>
      <point x="384" y="561"/>
      <point x="384" y="563"/>
      <point x="384" y="565" type="curve" smooth="yes"/>
      <point x="384" y="568"/>
      <point x="383" y="570"/>
      <point x="380" y="570" type="curve" smooth="yes"/>
      <point x="376" y="570"/>
      <point x="374" y="569"/>
      <point x="372" y="559" type="curve" smooth="yes"/>
      <point x="328" y="379" type="line"/>
      <point x="183" y="373" type="line"/>
      <point x="224" y="542" type="line" smooth="yes"/>
      <point x="225" y="547"/>
      <point x="226" y="551"/>
      <point x="226" y="554" type="curve" smooth="yes"/>
      <point x="226" y="557"/>
      <point x="225" y="559"/>
      <point x="221" y="559" type="curve" smooth="yes"/>
      <point x="218" y="559"/>
      <point x="216" y="556"/>
      <point x="214" y="548" type="curve" smooth="yes"/>
      <point x="171" y="371" type="line"/>
      <point x="88" y="368" type="line" smooth="yes"/>
      <point x="67" y="367"/>
      <point x="64" y="330"/>
      <point x="64" y="320" type="curve" smooth="yes"/>
      <point x="64" y="313"/>
      <point x="71" y="308"/>
      <point x="78" y="308" type="curve"/>
      <point x="156" y="311" type="line"/>
      <point x="122" y="173" type="line"/>
      <point x="41" y="170" type="line" smooth="yes"/>
      <point x="20" y="169"/>
      <point x="17" y="132"/>
      <point x="17" y="122" type="curve" smooth="yes"/>
      <point x="17" y="115"/>
      <point x="24" y="110"/>
      <point x="31" y="110" type="curve"/>
      <point x="108" y="113" type="line"/>
      <point x="64" y="-64" type="line"/>
      <point x="62" y="-75" type="line"/>
      <point x="62" y="-78"/>
      <point x="63" y="-79"/>
      <point x="66" y="-79" type="curve" smooth="yes"/>
    </contour>
    <contour>
      <point x="168" y="313" type="line"/>
      <point x="313" y="319" type="line"/>
      <point x="280" y="181" type="line"/>
      <point x="134" y="175" type="line"/>
    </contour>
  </outline>
</glyph>
<glyph name="dollar" format="1">
  <advance width="441"/>
  <unicode hex="0024"/>
  <outline>
    <contour>
      <point x="178" y="-82"/>
      <point x="181" y="-78"/>
      <point x="182" y="-71" type="curve" smooth="yes"/>
      <point x="189" y="9" type="line" smooth="yes"/>
      <point x="189" y="14"/>
      <point x="193" y="16"/>
      <point x="198" y="16" type="curve" smooth="yes"/>
      <point x="310" y="16"/>
      <point x="398" y="93"/>
      <point x="398" y="194" type="curve" smooth="yes"/>
      <point x="398" y="284"/>
      <point x="336" y="328"/>
      <point x="251" y="375" type="curve" smooth="yes"/>
      <point x="233" y="385"/>
      <point x="235" y="385"/>
      <point x="236" y="393" type="curve" smooth="yes"/>
      <point x="264" y="617" type="line"/>
      <point x="264" y="619"/>
      <point x="266" y="622"/>
      <point x="269" y="622" type="curve" smooth="yes"/>
      <point x="307" y="622"/>
      <point x="340" y="561"/>
      <point x="361" y="501" type="curve" smooth="yes"/>
      <point x="363" y="495"/>
      <point x="373" y="489"/>
      <point x="382" y="489" type="curve" smooth="yes"/>
      <point x="387" y="489"/>
      <point x="392" y="491"/>
      <point x="392" y="499" type="curve" smooth="yes"/>
      <point x="392" y="527"/>
      <point x="380" y="562"/>
      <point x="373" y="588" type="curve" smooth="yes"/>
      <point x="370" y="597"/>
      <point x="363" y="607"/>
      <point x="353" y="610" type="curve" smooth="yes"/>
      <point x="338" y="616"/>
      <point x="303" y="631"/>
      <point x="269" y="631" type="curve" smooth="yes"/>
      <point x="267" y="631"/>
      <point x="267" y="635"/>
      <point x="267" y="638" type="curve" smooth="yes"/>
      <point x="267" y="647"/>
      <point x="273" y="695"/>
      <point x="273" y="701" type="curve" smooth="yes"/>
      <point x="273" y="708"/>
      <point x="272" y="711"/>
      <point x="269" y="711" type="curve" smooth="yes"/>
      <point x="265" y="711"/>
      <point x="264" y="710"/>
      <point x="263" y="697" type="curve" smooth="yes"/>
      <point x="258" y="638" type="line" smooth="yes"/>
      <point x="258" y="635"/>
      <point x="257" y="632"/>
      <point x="255" y="632" type="curve" smooth="yes"/>
      <point x="119" y="632"/>
      <point x="56" y="552"/>
      <point x="56" y="466" type="curve" smooth="yes"/>
      <point x="56" y="390"/>
      <point x="135" y="336"/>
      <point x="200" y="298" type="curve" smooth="yes"/>
      <point x="212" y="291"/>
      <point x="213" y="286"/>
      <point x="212" y="281" type="curve" smooth="yes"/>
      <point x="182" y="29" type="line" smooth="yes"/>
      <point x="182" y="25"/>
      <point x="177" y="25"/>
      <point x="173" y="27" type="curve"/>
      <point x="136" y="42"/>
      <point x="85" y="74"/>
      <point x="63" y="176" type="curve" smooth="yes"/>
      <point x="61" y="183"/>
      <point x="58" y="186"/>
      <point x="53" y="186" type="curve" smooth="yes"/>
      <point x="46" y="186"/>
      <point x="40" y="182"/>
      <point x="40" y="174" type="curve"/>
      <point x="42" y="149"/>
      <point x="42" y="104"/>
      <point x="49" y="79" type="curve" smooth="yes"/>
      <point x="51" y="72"/>
      <point x="57" y="66"/>
      <point x="61" y="61" type="curve" smooth="yes"/>
      <point x="88" y="40"/>
      <point x="135" y="18"/>
      <point x="172" y="18" type="curve" smooth="yes"/>
      <point x="175" y="18"/>
      <point x="180" y="15"/>
      <point x="179" y="9" type="curve"/>
      <point x="171" y="-70" type="line" smooth="yes"/>
      <point x="170" y="-75"/>
      <point x="173" y="-82"/>
      <point x="176" y="-82" type="curve" smooth="yes"/>
    </contour>
    <contour>
      <point x="194" y="23"/>
      <point x="192" y="25"/>
      <point x="192" y="33" type="curve"/>
      <point x="221" y="279" type="line" smooth="yes"/>
      <point x="221" y="283"/>
      <point x="224" y="286"/>
      <point x="228" y="284" type="curve"/>
      <point x="283" y="255"/>
      <point x="319" y="219"/>
      <point x="319" y="158" type="curve" smooth="yes"/>
      <point x="319" y="95"/>
      <point x="271" y="23"/>
      <point x="200" y="23" type="curve"/>
    </contour>
    <contour>
      <point x="168" y="419"/>
      <point x="134" y="460"/>
      <point x="134" y="497" type="curve" smooth="yes"/>
      <point x="134" y="567"/>
      <point x="182" y="623"/>
      <point x="248" y="623" type="curve"/>
      <point x="254" y="623"/>
      <point x="256" y="620"/>
      <point x="256" y="615" type="curve"/>
      <point x="227" y="396" type="line"/>
      <point x="227" y="394"/>
      <point x="225" y="391"/>
      <point x="217" y="395" type="curve" smooth="yes"/>
    </contour>
  </outline>
</glyph>
<glyph name="parenleft" format="1">
  <advance width="315"/>
  <unicode hex="0028"/>
  <outline>
    <contour>
      <point x="251" y="-208"/>
      <point x="254" y="-207"/>
      <point x="254" y="-203" type="curve" smooth="yes"/>
      <point x="254" y="-202"/>
      <point x="250" y="-198"/>
      <point x="246" y="-193" type="curve" smooth="yes"/>
      <point x="136" y="-54"/>
      <point x="123" y="132"/>
      <point x="123" y="271" type="curve" smooth="yes"/>
      <point x="123" y="409"/>
      <point x="135" y="570"/>
      <point x="246" y="689" type="curve" smooth="yes"/>
      <point x="250" y="694"/>
      <point x="254" y="698"/>
      <point x="254" y="699" type="curve" smooth="yes"/>
      <point x="254" y="703"/>
      <point x="251" y="704"/>
      <point x="249" y="704" type="curve" smooth="yes"/>
      <point x="243" y="704"/>
      <point x="242" y="702"/>
      <point x="237" y="697" type="curve" smooth="yes"/>
      <point x="166" y="632"/>
      <point x="40" y="424"/>
      <point x="40" y="269" type="curve" smooth="yes"/>
      <point x="40" y="99"/>
      <point x="166" y="-130"/>
      <point x="237" y="-201" type="curve" smooth="yes"/>
      <point x="242" y="-206"/>
      <point x="243" y="-208"/>
      <point x="249" y="-208" type="curve" smooth="yes"/>
    </contour>
  </outline>
</glyph>
<glyph name="asterisk" format="1">
  <advance width="340"/>
  <unicode hex="002A"/>
  <outline>
    <contour>
      <point x="189" y="372"/>
      <point x="190" y="383"/>
      <point x="191" y="394" type="curve" smooth="yes"/>
      <point x="195" y="432"/>
      <point x="195" y="459"/>
      <point x="195" y="487" type="curve"/>
      <point x="221" y="479"/>
      <point x="250" y="470"/>
      <point x="282" y="462" type="curve" smooth="yes"/>
      <point x="290" y="460"/>
      <point x="306" y="459"/>
      <point x="306" y="463" type="curve" smooth="yes"/>
      <point x="306" y="465"/>
      <point x="301" y="472"/>
      <point x="295" y="475" type="curve" smooth="yes"/>
      <point x="257" y="498"/>
      <point x="239" y="508"/>
      <point x="213" y="525" type="curve"/>
      <point x="278" y="588" type="line" smooth="yes"/>
      <point x="284" y="593"/>
      <point x="287" y="599"/>
      <point x="287" y="605" type="curve" smooth="yes"/>
      <point x="287" y="608"/>
      <point x="287" y="610"/>
      <point x="282" y="610" type="curve" smooth="yes"/>
      <point x="278" y="610"/>
      <point x="272" y="607"/>
      <point x="268" y="605" type="curve" smooth="yes"/>
      <point x="236" y="589"/>
      <point x="210" y="576"/>
      <point x="187" y="560" type="curve"/>
      <point x="164" y="652" type="line" smooth="yes"/>
      <point x="162" y="661"/>
      <point x="161" y="670"/>
      <point x="157" y="670" type="curve" smooth="yes"/>
      <point x="152" y="670"/>
      <point x="151" y="659"/>
      <point x="150" y="648" type="curve" smooth="yes"/>
      <point x="146" y="613"/>
      <point x="147" y="583"/>
      <point x="146" y="555" type="curve"/>
      <point x="120" y="566"/>
      <point x="91" y="575"/>
      <point x="59" y="583" type="curve" smooth="yes"/>
      <point x="51" y="585"/>
      <point x="35" y="588"/>
      <point x="35" y="580" type="curve" smooth="yes"/>
      <point x="35" y="573"/>
      <point x="44" y="569"/>
      <point x="51" y="565" type="curve" smooth="yes"/>
      <point x="81" y="546"/>
      <point x="105" y="531"/>
      <point x="128" y="517" type="curve"/>
      <point x="63" y="455" type="line" smooth="yes"/>
      <point x="58" y="451"/>
      <point x="55" y="446"/>
      <point x="55" y="440" type="curve" smooth="yes"/>
      <point x="55" y="437"/>
      <point x="55" y="434"/>
      <point x="63" y="434" type="curve" smooth="yes"/>
      <point x="67" y="434"/>
      <point x="70" y="436"/>
      <point x="74" y="438" type="curve" smooth="yes"/>
      <point x="105" y="455"/>
      <point x="128" y="469"/>
      <point x="154" y="482" type="curve"/>
      <point x="177" y="390" type="line" smooth="yes"/>
      <point x="179" y="381"/>
      <point x="180" y="372"/>
      <point x="184" y="372" type="curve" smooth="yes"/>
    </contour>
  </outline>
</glyph>
<glyph name="comma" format="1">
  <advance width="230"/>
  <unicode hex="002C"/>
  <outline>
    <contour>
      <point x="89" y="-147"/>
      <point x="182" y="-81"/>
      <point x="182" y="20" type="curve" smooth="yes"/>
      <point x="182" y="76"/>
      <point x="147" y="117"/>
      <point x="99" y="117" type="curve" smooth="yes"/>
      <point x="70" y="117"/>
      <point x="44" y="99"/>
      <point x="44" y="72" type="curve" smooth="yes"/>
      <point x="44" y="50"/>
      <point x="62" y="34"/>
      <point x="91" y="26" type="curve" smooth="yes"/>
      <point x="113" y="20"/>
      <point x="135" y="0"/>
      <point x="135" y="-32" type="curve" smooth="yes"/>
      <point x="135" y="-86"/>
      <point x="76" y="-137"/>
      <point x="33" y="-139" type="curve" smooth="yes"/>
      <point x="24" y="-139"/>
      <point x="20" y="-141"/>
      <point x="20" y="-143" type="curve" smooth="yes"/>
      <point x="20" y="-145"/>
      <point x="26" y="-147"/>
      <point x="38" y="-147" type="curve" smooth="yes"/>
    </contour>
  </outline>
</glyph>
<glyph name="hyphen" format="1">
  <advance width="274"/>
  <unicode hex="002D"/>
  <outline>
    <contour>
      <point x="35" y="231" type="curve" smooth="yes"/>
      <point x="98" y="235"/>
      <point x="161" y="239"/>
      <point x="224" y="243" type="curve" smooth="yes"/>
      <point x="240" y="245"/>
      <point x="245" y="250"/>
      <point x="245" y="253" type="curve" smooth="yes"/>
      <point x="245" y="255"/>
      <point x="241" y="255"/>
      <point x="237" y="255" type="curve" smooth="yes"/>
      <point x="173" y="250"/>
      <point x="109" y="246"/>
      <point x="45" y="241" type="curve" smooth="yes"/>
      <point x="35" y="241"/>
      <point x="29" y="236"/>
      <point x="29" y="231" type="curve" smooth="yes"/>
      <point x="29" y="231"/>
      <point x="30" y="231"/>
    </contour>
  </outline>
</glyph>
<glyph name="zero" format="1">
  <advance width="480"/>
  <unicode hex="0030"/>
  <outline>
    <contour>
      <point x="235" y="-14" type="curve" smooth="yes"/>
      <point x="383" y="-14"/>
      <point x="445" y="166"/>
      <point x="445" y="316" type="curve" smooth="yes"/>
      <point x="445" y="461"/>
      <point x="381" y="630"/>
      <point x="245" y="630" type="curve" smooth="yes"/>
      <point x="97" y="630"/>
      <point x="35" y="454"/>
      <point x="35" y="302" type="curve" smooth="yes"/>
      <point x="35" y="154"/>
      <point x="99" y="-14"/>
    </contour>
    <contour>
      <point x="252" y="-5" type="curve" smooth="yes"/>
      <point x="162" y="-5"/>
      <point x="118" y="162"/>
      <point x="118" y="321" type="curve" smooth="yes"/>
      <point x="118" y="479"/>
      <point x="146" y="619"/>
      <point x="226" y="619" type="curve" smooth="yes"/>
      <point x="316" y="619"/>
      <point x="363" y="456"/>
      <point x="363" y="297" type="curve" smooth="yes"/>
      <point x="363" y="139"/>
      <point x="332" y="-5"/>
    </contour>
  </outline>
</glyph>
<glyph name="one" format="1">
  <advance width="480"/>
  <unicode hex="0031"/>
  <outline>
    <contour>
      <point x="107" y="-3" type="curve" smooth="yes"/>
      <point x="161" y="-3"/>
      <point x="203" y="2"/>
      <point x="257" y="2" type="curve" smooth="yes"/>
      <point x="310" y="2"/>
      <point x="347" y="-3"/>
      <point x="404" y="-3" type="curve" smooth="yes"/>
      <point x="412" y="-3"/>
      <point x="418" y="0"/>
      <point x="418" y="2" type="curve" smooth="yes"/>
      <point x="418" y="3"/>
      <point x="411" y="6"/>
      <point x="401" y="7" type="curve" smooth="yes"/>
      <point x="319" y="13"/>
      <point x="295" y="13"/>
      <point x="295" y="75" type="curve" smooth="yes"/>
      <point x="295" y="557" type="line" smooth="yes"/>
      <point x="295" y="585"/>
      <point x="296" y="608"/>
      <point x="299" y="628" type="curve"/>
      <point x="300" y="633"/>
      <point x="293" y="637"/>
      <point x="287" y="637" type="curve" smooth="yes"/>
      <point x="285" y="637"/>
      <point x="280" y="637"/>
      <point x="267" y="614" type="curve" smooth="yes"/>
      <point x="247" y="578"/>
      <point x="208" y="562"/>
      <point x="132" y="562" type="curve" smooth="yes"/>
      <point x="118" y="562"/>
      <point x="107" y="561"/>
      <point x="107" y="556" type="curve" smooth="yes"/>
      <point x="107" y="551"/>
      <point x="120" y="550"/>
      <point x="133" y="550" type="curve" smooth="yes"/>
      <point x="205" y="550"/>
      <point x="217" y="542"/>
      <point x="217" y="493" type="curve" smooth="yes"/>
      <point x="217" y="78" type="line" smooth="yes"/>
      <point x="217" y="14"/>
      <point x="183" y="11"/>
      <point x="107" y="7" type="curve" smooth="yes"/>
      <point x="99" y="6"/>
      <point x="92" y="3"/>
      <point x="92" y="2" type="curve" smooth="yes"/>
      <point x="92" y="0"/>
      <point x="97" y="-3"/>
    </contour>
  </outline>
</glyph>
<glyph name="two" format="1">
  <advance width="480"/>
  <unicode hex="0032"/>
  <outline>
    <contour>
      <point x="419" y="-3" type="curve" smooth="yes"/>
      <point x="426" y="-3"/>
      <point x="437" y="0"/>
      <point x="441" y="21" type="curve" smooth="yes"/>
      <point x="451" y="71"/>
      <point x="472" y="142"/>
      <point x="472" y="152" type="curve" smooth="yes"/>
      <point x="472" y="157"/>
      <point x="473" y="164"/>
      <point x="470" y="164" type="curve" smooth="yes"/>
      <point x="466" y="164"/>
      <point x="465" y="160"/>
      <point x="463" y="151" type="curve" smooth="yes"/>
      <point x="446" y="83"/>
      <point x="434" y="66"/>
      <point x="370" y="64" type="curve" smooth="yes"/>
      <point x="309" y="62"/>
      <point x="268" y="61"/>
      <point x="230" y="61" type="curve" smooth="yes"/>
      <point x="193" y="61"/>
      <point x="134" y="61"/>
      <point x="112" y="64" type="curve" smooth="yes"/>
      <point x="104" y="65"/>
      <point x="98" y="66"/>
      <point x="98" y="71" type="curve"/>
      <point x="144" y="114"/>
      <point x="190" y="156"/>
      <point x="236" y="199" type="curve" smooth="yes"/>
      <point x="336" y="291"/>
      <point x="409" y="375"/>
      <point x="409" y="488" type="curve" smooth="yes"/>
      <point x="409" y="560"/>
      <point x="351" y="630"/>
      <point x="251" y="630" type="curve" smooth="yes"/>
      <point x="138" y="630"/>
      <point x="89" y="536"/>
      <point x="67" y="482" type="curve" smooth="yes"/>
      <point x="65" y="476"/>
      <point x="63" y="469"/>
      <point x="66" y="469" type="curve" smooth="yes"/>
      <point x="70" y="469"/>
      <point x="72" y="475"/>
      <point x="75" y="480" type="curve" smooth="yes"/>
      <point x="111" y="537"/>
      <point x="159" y="566"/>
      <point x="216" y="566" type="curve" smooth="yes"/>
      <point x="291" y="566"/>
      <point x="328" y="515"/>
      <point x="328" y="446" type="curve" smooth="yes"/>
      <point x="328" y="352"/>
      <point x="284" y="253"/>
      <point x="198" y="174" type="curve" smooth="yes"/>
      <point x="40" y="28" type="line" smooth="yes"/>
      <point x="34" y="22"/>
      <point x="32" y="21"/>
      <point x="32" y="15" type="curve" smooth="yes"/>
      <point x="32" y="9"/>
      <point x="47" y="-2"/>
      <point x="52" y="-2" type="curve" smooth="yes"/>
      <point x="72" y="-2"/>
      <point x="234" y="3"/>
      <point x="284" y="3" type="curve" smooth="yes"/>
      <point x="334" y="3"/>
      <point x="399" y="-3"/>
    </contour>
  </outline>
</glyph>
<glyph name="three" format="1">
  <advance width="480"/>
  <unicode hex="0033"/>
  <outline>
    <contour>
      <point x="161" y="-38" type="curve" smooth="yes"/>
      <point x="297" y="-38"/>
      <point x="439" y="53"/>
      <point x="439" y="203" type="curve" smooth="yes"/>
      <point x="439" y="288"/>
      <point x="364" y="365"/>
      <point x="279" y="365" type="curve" smooth="yes"/>
      <point x="274" y="365"/>
      <point x="274" y="369"/>
      <point x="278" y="371" type="curve"/>
      <point x="358" y="414"/>
      <point x="391" y="468"/>
      <point x="391" y="516" type="curve" smooth="yes"/>
      <point x="391" y="584"/>
      <point x="327" y="630"/>
      <point x="261" y="630" type="curve" smooth="yes"/>
      <point x="134" y="630"/>
      <point x="68" y="535"/>
      <point x="68" y="500" type="curve" smooth="yes"/>
      <point x="68" y="490"/>
      <point x="69" y="486"/>
      <point x="74" y="486" type="curve" smooth="yes"/>
      <point x="82" y="486"/>
      <point x="96" y="575"/>
      <point x="211" y="575" type="curve" smooth="yes"/>
      <point x="275" y="575"/>
      <point x="312" y="531"/>
      <point x="312" y="473" type="curve" smooth="yes"/>
      <point x="312" y="381"/>
      <point x="209" y="332"/>
      <point x="186" y="323" type="curve" smooth="yes"/>
      <point x="173" y="318"/>
      <point x="161" y="313"/>
      <point x="156" y="300" type="curve" smooth="yes"/>
      <point x="154" y="294"/>
      <point x="163" y="292"/>
      <point x="173" y="299" type="curve" smooth="yes"/>
      <point x="193" y="313"/>
      <point x="223" y="316"/>
      <point x="238" y="316" type="curve" smooth="yes"/>
      <point x="315" y="316"/>
      <point x="354" y="232"/>
      <point x="354" y="152" type="curve" smooth="yes"/>
      <point x="354" y="60"/>
      <point x="303" y="-20"/>
      <point x="208" y="-20" type="curve" smooth="yes"/>
      <point x="171" y="-20"/>
      <point x="150" y="6"/>
      <point x="133" y="24" type="curve" smooth="yes"/>
      <point x="120" y="36"/>
      <point x="109" y="48"/>
      <point x="94" y="48" type="curve" smooth="yes"/>
      <point x="79" y="51"/>
      <point x="50" y="19"/>
      <point x="50" y="5" type="curve" smooth="yes"/>
      <point x="50" y="-11"/>
      <point x="114" y="-38"/>
    </contour>
  </outline>
</glyph>
<glyph name="five" format="1">
  <advance width="480"/>
  <unicode hex="0035"/>
  <outline>
    <contour>
      <point x="109" y="-38" type="curve" smooth="yes"/>
      <point x="180" y="-38"/>
      <point x="245" y="-20"/>
      <point x="298" y="10" type="curve" smooth="yes"/>
      <point x="372" y="53"/>
      <point x="420" y="120"/>
      <point x="420" y="193" type="curve" smooth="yes"/>
      <point x="420" y="274"/>
      <point x="383" y="323"/>
      <point x="309" y="362" type="curve" smooth="yes"/>
      <point x="263" y="386"/>
      <point x="185" y="410"/>
      <point x="109" y="429" type="curve" smooth="yes"/>
      <point x="97" y="432"/>
      <point x="95" y="439"/>
      <point x="96" y="448" type="curve" smooth="yes"/>
      <point x="97" y="464"/>
      <point x="123" y="525"/>
      <point x="137" y="527" type="curve" smooth="yes"/>
      <point x="167" y="532"/>
      <point x="278" y="539"/>
      <point x="330" y="545" type="curve" smooth="yes"/>
      <point x="347" y="547"/>
      <point x="358" y="557"/>
      <point x="367" y="577" type="curve" smooth="yes"/>
      <point x="372" y="587"/>
      <point x="378" y="599"/>
      <point x="384" y="610" type="curve" smooth="yes"/>
      <point x="389" y="619"/>
      <point x="383" y="628"/>
      <point x="373" y="627" type="curve" smooth="yes"/>
      <point x="295" y="620"/>
      <point x="227" y="608"/>
      <point x="166" y="592" type="curve" smooth="yes"/>
      <point x="145" y="587"/>
      <point x="132" y="576"/>
      <point x="125" y="556" type="curve" smooth="yes"/>
      <point x="111" y="512"/>
      <point x="77" y="433"/>
      <point x="77" y="397" type="curve" smooth="yes"/>
      <point x="77" y="379"/>
      <point x="83" y="366"/>
      <point x="101" y="351" type="curve"/>
      <point x="276" y="319"/>
      <point x="341" y="253"/>
      <point x="341" y="173" type="curve" smooth="yes"/>
      <point x="341" y="72"/>
      <point x="303" y="-13"/>
      <point x="108" y="-31" type="curve" smooth="yes"/>
      <point x="96" y="-32"/>
      <point x="72" y="-33"/>
      <point x="72" y="-35" type="curve" smooth="yes"/>
      <point x="72" y="-37"/>
      <point x="94" y="-38"/>
    </contour>
  </outline>
</glyph>
<glyph name="six" format="1">
  <advance width="480"/>
  <unicode hex="0036"/>
  <outline>
    <contour>
      <point x="252" y="-16" type="curve" smooth="yes"/>
      <point x="349" y="-16"/>
      <point x="457" y="65"/>
      <point x="457" y="190" type="curve" smooth="yes"/>
      <point x="457" y="262"/>
      <point x="395" y="313"/>
      <point x="326" y="313" type="curve" smooth="yes"/>
      <point x="300" y="313"/>
      <point x="268" y="304"/>
      <point x="239" y="290" type="curve" smooth="yes"/>
      <point x="226" y="284"/>
      <point x="213" y="276"/>
      <point x="202" y="268" type="curve" smooth="yes"/>
      <point x="194" y="262"/>
      <point x="195" y="253"/>
      <point x="208" y="261" type="curve" smooth="yes"/>
      <point x="232" y="276"/>
      <point x="267" y="290"/>
      <point x="288" y="290" type="curve" smooth="yes"/>
      <point x="341" y="290"/>
      <point x="379" y="223"/>
      <point x="379" y="140" type="curve" smooth="yes"/>
      <point x="379" y="38"/>
      <point x="329" y="-9"/>
      <point x="265" y="-8" type="curve" smooth="yes"/>
      <point x="209" y="-7"/>
      <point x="135" y="57"/>
      <point x="133" y="176" type="curve" smooth="yes"/>
      <point x="131" y="303"/>
      <point x="177" y="433"/>
      <point x="267" y="526" type="curve" smooth="yes"/>
      <point x="310" y="571"/>
      <point x="371" y="602"/>
      <point x="431" y="630" type="curve" smooth="yes"/>
      <point x="438" y="633"/>
      <point x="447" y="634"/>
      <point x="453" y="640" type="curve" smooth="yes"/>
      <point x="455" y="641"/>
      <point x="447" y="647"/>
      <point x="435" y="643" type="curve" smooth="yes"/>
      <point x="366" y="618"/>
      <point x="304" y="586"/>
      <point x="251" y="548" type="curve" smooth="yes"/>
      <point x="124" y="459"/>
      <point x="47" y="336"/>
      <point x="47" y="193" type="curve" smooth="yes"/>
      <point x="47" y="53"/>
      <point x="149" y="-16"/>
    </contour>
  </outline>
</glyph>
<glyph name="seven" format="1">
  <advance width="480"/>
  <unicode hex="0037"/>
  <outline>
    <contour>
      <point x="111" y="-32" type="curve" smooth="yes"/>
      <point x="115" y="-32"/>
      <point x="124" y="-16"/>
      <point x="130" y="-5" type="curve" smooth="yes"/>
      <point x="431" y="538" type="line" smooth="yes"/>
      <point x="441" y="555"/>
      <point x="469" y="592"/>
      <point x="469" y="608" type="curve" smooth="yes"/>
      <point x="469" y="613"/>
      <point x="466" y="621"/>
      <point x="463" y="621" type="curve" smooth="yes"/>
      <point x="444" y="618"/>
      <point x="331" y="616"/>
      <point x="233" y="616" type="curve" smooth="yes"/>
      <point x="186" y="616"/>
      <point x="164" y="617"/>
      <point x="134" y="617" type="curve" smooth="yes"/>
      <point x="92" y="617"/>
      <point x="53" y="626"/>
      <point x="50" y="626" type="curve" smooth="yes"/>
      <point x="47" y="626"/>
      <point x="41" y="624"/>
      <point x="40" y="615" type="curve" smooth="yes"/>
      <point x="37" y="590"/>
      <point x="30" y="545"/>
      <point x="23" y="516" type="curve" smooth="yes"/>
      <point x="22" y="511"/>
      <point x="20" y="501"/>
      <point x="20" y="494" type="curve" smooth="yes"/>
      <point x="20" y="487"/>
      <point x="21" y="480"/>
      <point x="23" y="480" type="curve" smooth="yes"/>
      <point x="26" y="480"/>
      <point x="28" y="490"/>
      <point x="31" y="505" type="curve" smooth="yes"/>
      <point x="39" y="543"/>
      <point x="58" y="551"/>
      <point x="79" y="551" type="curve" smooth="yes"/>
      <point x="435" y="551" type="line"/>
      <point x="435" y="565" type="line"/>
      <point x="139" y="35" type="line" smooth="yes"/>
      <point x="130" y="19"/>
      <point x="104" y="-21"/>
      <point x="104" y="-25" type="curve" smooth="yes"/>
      <point x="104" y="-29"/>
      <point x="105" y="-32"/>
    </contour>
  </outline>
</glyph>
<glyph name="eight" format="1">
  <advance width="480"/>
  <unicode hex="0038"/>
  <outline>
    <contour>
      <point x="230" y="-14" type="curve" smooth="yes"/>
      <point x="328" y="-14"/>
      <point x="427" y="60"/>
      <point x="427" y="164" type="curve" smooth="yes"/>
      <point x="427" y="241"/>
      <point x="370" y="291"/>
      <point x="293" y="340" type="curve" smooth="yes"/>
      <point x="282" y="347"/>
      <point x="281" y="349"/>
      <point x="298" y="361" type="curve" smooth="yes"/>
      <point x="321" y="377"/>
      <point x="337" y="384"/>
      <point x="356" y="400" type="curve" smooth="yes"/>
      <point x="379" y="420"/>
      <point x="409" y="448"/>
      <point x="409" y="496" type="curve" smooth="yes"/>
      <point x="409" y="577"/>
      <point x="330" y="630"/>
      <point x="250" y="630" type="curve" smooth="yes"/>
      <point x="161" y="630"/>
      <point x="68" y="567"/>
      <point x="68" y="489" type="curve" smooth="yes"/>
      <point x="68" y="404"/>
      <point x="130" y="363"/>
      <point x="189" y="311" type="curve" smooth="yes"/>
      <point x="197" y="304"/>
      <point x="201" y="303"/>
      <point x="192" y="298" type="curve" smooth="yes"/>
      <point x="141" y="270"/>
      <point x="53" y="229"/>
      <point x="53" y="141" type="curve" smooth="yes"/>
      <point x="53" y="49"/>
      <point x="138" y="-14"/>
    </contour>
    <contour>
      <point x="244" y="-4" type="curve" smooth="yes"/>
      <point x="174" y="-4"/>
      <point x="133" y="72"/>
      <point x="133" y="148" type="curve" smooth="yes"/>
      <point x="133" y="216"/>
      <point x="146" y="253"/>
      <point x="191" y="289" type="curve" smooth="yes"/>
      <point x="196" y="293"/>
      <point x="200" y="295"/>
      <point x="203" y="295" type="curve" smooth="yes"/>
      <point x="209" y="295"/>
      <point x="215" y="291"/>
      <point x="223" y="284" type="curve"/>
      <point x="281" y="242"/>
      <point x="347" y="179"/>
      <point x="347" y="113" type="curve" smooth="yes"/>
      <point x="347" y="50"/>
      <point x="303" y="-4"/>
    </contour>
    <contour>
      <point x="280" y="354" type="curve"/>
      <point x="276" y="351"/>
      <point x="270" y="354"/>
      <point x="266" y="357" type="curve"/>
      <point x="196" y="417"/>
      <point x="145" y="436"/>
      <point x="145" y="517" type="curve" smooth="yes"/>
      <point x="145" y="574"/>
      <point x="199" y="620"/>
      <point x="245" y="620" type="curve" smooth="yes"/>
      <point x="303" y="620"/>
      <point x="332" y="570"/>
      <point x="332" y="511" type="curve" smooth="yes"/>
      <point x="332" y="447"/>
      <point x="326" y="394"/>
    </contour>
  </outline>
</glyph>
<glyph name="question" format="1">
  <advance width="376"/>
  <unicode hex="003F"/>
  <outline>
    <contour>
      <point x="135" y="181"/>
      <point x="138" y="195"/>
      <point x="140" y="204" type="curve" smooth="yes"/>
      <point x="148" y="236"/>
      <point x="155" y="265"/>
      <point x="183" y="283" type="curve" smooth="yes"/>
      <point x="215" y="304"/>
      <point x="225" y="310"/>
      <point x="269" y="334" type="curve" smooth="yes"/>
      <point x="289" y="345"/>
      <point x="305" y="369"/>
      <point x="305" y="418" type="curve" smooth="yes"/>
      <point x="305" y="469"/>
      <point x="268" y="555"/>
      <point x="212" y="611" type="curve" smooth="yes"/>
      <point x="179" y="644"/>
      <point x="143" y="661"/>
      <point x="110" y="661" type="curve" smooth="yes"/>
      <point x="93" y="661"/>
      <point x="70" y="644"/>
      <point x="70" y="625" type="curve" smooth="yes"/>
      <point x="70" y="598"/>
      <point x="91" y="569"/>
      <point x="112" y="569" type="curve" smooth="yes"/>
      <point x="122" y="569"/>
      <point x="129" y="570"/>
      <point x="136" y="571" type="curve" smooth="yes"/>
      <point x="143" y="572"/>
      <point x="150" y="573"/>
      <point x="159" y="573" type="curve" smooth="yes"/>
      <point x="246" y="572"/>
      <point x="282" y="521"/>
      <point x="282" y="462" type="curve" smooth="yes"/>
      <point x="282" y="434"/>
      <point x="248" y="407"/>
      <point x="212" y="394" type="curve"/>
      <point x="136" y="355"/>
      <point x="98" y="331"/>
      <point x="98" y="297" type="curve" smooth="yes"/>
      <point x="98" y="252"/>
      <point x="114" y="229"/>
      <point x="120" y="208" type="curve" smooth="yes"/>
      <point x="125" y="192"/>
      <point x="129" y="181"/>
      <point x="132" y="181" type="curve" smooth="yes"/>
    </contour>
    <contour>
      <point x="183" y="-14"/>
      <point x="210" y="13"/>
      <point x="210" y="46" type="curve" smooth="yes"/>
      <point x="210" y="79"/>
      <point x="183" y="106"/>
      <point x="150" y="106" type="curve" smooth="yes"/>
      <point x="117" y="106"/>
      <point x="90" y="79"/>
      <point x="90" y="46" type="curve" smooth="yes"/>
      <point x="90" y="13"/>
      <point x="117" y="-14"/>
      <point x="150" y="-14" type="curve" smooth="yes"/>
    </contour>
  </outline>
</glyph>
<glyph name="at" format="1">
  <advance width="749"/>
  <unicode hex="0040"/>
  <outline>
    <contour>
      <point x="382" y="-131" type="curve" smooth="yes"/>
      <point x="490" y="-131"/>
      <point x="632" y="-41"/>
      <point x="632" y="-17" type="curve" smooth="yes"/>
      <point x="632" y="-15"/>
      <point x="631" y="-13"/>
      <point x="628" y="-13" type="curve" smooth="yes"/>
      <point x="627" y="-13"/>
      <point x="625" y="-15"/>
      <point x="623" y="-16" type="curve"/>
      <point x="550" y="-82"/>
      <point x="458" y="-121"/>
      <point x="393" y="-121" type="curve" smooth="yes"/>
      <point x="248" y="-121"/>
      <point x="70" y="-25"/>
      <point x="70" y="183" type="curve" smooth="yes"/>
      <point x="70" y="386"/>
      <point x="225" y="497"/>
      <point x="394" y="497" type="curve" smooth="yes"/>
      <point x="571" y="497"/>
      <point x="669" y="372"/>
      <point x="669" y="239" type="curve" smooth="yes"/>
      <point x="669" y="139"/>
      <point x="607" y="73"/>
      <point x="517" y="73" type="curve" smooth="yes"/>
      <point x="503" y="73"/>
      <point x="499" y="87"/>
      <point x="499" y="102" type="curve" smooth="yes"/>
      <point x="499" y="111"/>
      <point x="501" y="120"/>
      <point x="502" y="129" type="curve"/>
      <point x="524" y="272" type="line" smooth="yes"/>
      <point x="526" y="288"/>
      <point x="537" y="328"/>
      <point x="546" y="352" type="curve"/>
      <point x="549" y="356"/>
      <point x="544" y="356"/>
      <point x="540" y="356" type="curve" smooth="yes"/>
      <point x="537" y="356"/>
      <point x="532" y="338"/>
      <point x="507" y="338" type="curve" smooth="yes"/>
      <point x="503" y="338"/>
      <point x="495" y="342"/>
      <point x="480" y="347" type="curve" smooth="yes"/>
      <point x="468" y="351"/>
      <point x="435" y="355"/>
      <point x="415" y="355" type="curve" smooth="yes"/>
      <point x="305" y="355"/>
      <point x="204" y="277"/>
      <point x="204" y="156" type="curve" smooth="yes"/>
      <point x="204" y="86"/>
      <point x="256" y="47"/>
      <point x="322" y="47" type="curve" smooth="yes"/>
      <point x="394" y="47"/>
      <point x="428" y="84"/>
      <point x="438" y="84" type="curve" smooth="yes"/>
      <point x="448" y="84"/>
      <point x="451" y="47"/>
      <point x="492" y="47" type="curve" smooth="yes"/>
      <point x="599" y="47"/>
      <point x="681" y="118"/>
      <point x="681" y="241" type="curve" smooth="yes"/>
      <point x="681" y="384"/>
      <point x="563" y="507"/>
      <point x="414" y="507" type="curve" smooth="yes"/>
      <point x="223" y="507"/>
      <point x="60" y="395"/>
      <point x="60" y="181" type="curve" smooth="yes"/>
      <point x="60" y="-3"/>
      <point x="204" y="-131"/>
    </contour>
    <contour>
      <point x="358" y="62" type="curve" smooth="yes"/>
      <point x="320" y="62"/>
      <point x="275" y="87"/>
      <point x="275" y="171" type="curve" smooth="yes"/>
      <point x="275" y="285"/>
      <point x="336" y="346"/>
      <point x="393" y="346" type="curve" smooth="yes"/>
      <point x="437" y="346"/>
      <point x="465" y="321"/>
      <point x="465" y="278" type="curve" smooth="yes"/>
      <point x="465" y="273"/>
      <point x="465" y="269"/>
      <point x="464" y="264" type="curve"/>
      <point x="445" y="144" type="line" smooth="yes"/>
      <point x="439" y="108"/>
      <point x="430" y="97"/>
      <point x="418" y="87" type="curve" smooth="yes"/>
      <point x="398" y="71"/>
      <point x="382" y="62"/>
    </contour>
  </outline>
</glyph>
<glyph name="D" format="1">
  <advance width="754"/>
  <unicode hex="0044"/>
  <outline>
    <contour>
      <point x="371" y="-7" type="curve" smooth="yes"/>
      <point x="562" y="-7"/>
      <point x="719" y="150"/>
      <point x="719" y="342" type="curve" smooth="yes"/>
      <point x="719" y="517"/>
      <point x="611" y="659"/>
      <point x="340" y="659" type="curve" smooth="yes"/>
      <point x="313" y="659"/>
      <point x="212" y="651"/>
      <point x="169" y="651" type="curve" smooth="yes"/>
      <point x="121" y="651"/>
      <point x="109" y="653"/>
      <point x="58" y="653" type="curve" smooth="yes"/>
      <point x="41" y="653"/>
      <point x="29" y="652"/>
      <point x="29" y="649" type="curve" smooth="yes"/>
      <point x="29" y="646"/>
      <point x="39" y="645"/>
      <point x="62" y="644" type="curve" smooth="yes"/>
      <point x="123" y="642"/>
      <point x="129" y="635"/>
      <point x="129" y="597" type="curve" smooth="yes"/>
      <point x="129" y="88" type="line" smooth="yes"/>
      <point x="129" y="16"/>
      <point x="118" y="9"/>
      <point x="62" y="5" type="curve" smooth="yes"/>
      <point x="39" y="4"/>
      <point x="29" y="4"/>
      <point x="29" y="0" type="curve" smooth="yes"/>
      <point x="29" y="-4"/>
      <point x="41" y="-5"/>
      <point x="58" y="-5" type="curve" smooth="yes"/>
      <point x="111" y="-5"/>
      <point x="123" y="0"/>
      <point x="163" y="0" type="curve" smooth="yes"/>
      <point x="242" y="0"/>
      <point x="351" y="-7"/>
    </contour>
    <contour>
      <point x="359" y="5" type="curve" smooth="yes"/>
      <point x="284" y="5"/>
      <point x="209" y="19"/>
      <point x="209" y="106" type="curve" smooth="yes"/>
      <point x="209" y="585" type="line" smooth="yes"/>
      <point x="209" y="649"/>
      <point x="258" y="651"/>
      <point x="345" y="651" type="curve" smooth="yes"/>
      <point x="482" y="651"/>
      <point x="624" y="531"/>
      <point x="624" y="325" type="curve" smooth="yes"/>
      <point x="624" y="138"/>
      <point x="515" y="5"/>
    </contour>
  </outline>
</glyph>
<glyph name="E" format="1">
  <advance width="564"/>
  <unicode hex="0045"/>
  <outline>
    <contour>
      <point x="66" y="-5" type="curve" smooth="yes"/>
      <point x="120" y="-5"/>
      <point x="136" y="1"/>
      <point x="181" y="1" type="curve" smooth="yes"/>
      <point x="281" y="1"/>
      <point x="366" y="-5"/>
      <point x="494" y="-5" type="curve" smooth="yes"/>
      <point x="502" y="-5"/>
      <point x="504" y="3"/>
      <point x="508" y="12" type="curve" smooth="yes"/>
      <point x="520" y="39"/>
      <point x="539" y="110"/>
      <point x="539" y="128" type="curve" smooth="yes"/>
      <point x="539" y="136"/>
      <point x="537" y="141"/>
      <point x="530" y="142" type="curve" smooth="yes"/>
      <point x="524" y="143"/>
      <point x="519" y="135"/>
      <point x="515" y="125" type="curve" smooth="yes"/>
      <point x="494" y="75"/>
      <point x="479" y="46"/>
      <point x="459" y="28" type="curve" smooth="yes"/>
      <point x="438" y="12"/>
      <point x="412" y="7"/>
      <point x="371" y="7" type="curve" smooth="yes"/>
      <point x="290" y="7" type="line" smooth="yes"/>
      <point x="245" y="7"/>
      <point x="224" y="23"/>
      <point x="224" y="74" type="curve" smooth="yes"/>
      <point x="224" y="306" type="line" smooth="yes"/>
      <point x="224" y="329"/>
      <point x="235" y="332"/>
      <point x="258" y="332" type="curve" smooth="yes"/>
      <point x="362" y="332" type="line" smooth="yes"/>
      <point x="386" y="332"/>
      <point x="399" y="306"/>
      <point x="406" y="275" type="curve" smooth="yes"/>
      <point x="411" y="254"/>
      <point x="414" y="243"/>
      <point x="423" y="243" type="curve" smooth="yes"/>
      <point x="430" y="243"/>
      <point x="429" y="251"/>
      <point x="429" y="260" type="curve" smooth="yes"/>
      <point x="429" y="268"/>
      <point x="427" y="317"/>
      <point x="427" y="337" type="curve" smooth="yes"/>
      <point x="427" y="353"/>
      <point x="430" y="398"/>
      <point x="430" y="407" type="curve" smooth="yes"/>
      <point x="430" y="417"/>
      <point x="425" y="423"/>
      <point x="420" y="423" type="curve" smooth="yes"/>
      <point x="413" y="423"/>
      <point x="412" y="416"/>
      <point x="408" y="401" type="curve" smooth="yes"/>
      <point x="398" y="364"/>
      <point x="388" y="340"/>
      <point x="353" y="340" type="curve" smooth="yes"/>
      <point x="242" y="340" type="line" smooth="yes"/>
      <point x="232" y="340"/>
      <point x="224" y="350"/>
      <point x="224" y="362" type="curve" smooth="yes"/>
      <point x="224" y="620" type="line" smooth="yes"/>
      <point x="224" y="635"/>
      <point x="236" y="642"/>
      <point x="262" y="642" type="curve" smooth="yes"/>
      <point x="409" y="642" type="line" smooth="yes"/>
      <point x="429" y="642"/>
      <point x="442" y="634"/>
      <point x="456" y="603" type="curve" smooth="yes"/>
      <point x="462" y="590"/>
      <point x="473" y="564"/>
      <point x="484" y="540" type="curve" smooth="yes"/>
      <point x="489" y="528"/>
      <point x="492" y="526"/>
      <point x="497" y="526" type="curve" smooth="yes"/>
      <point x="503" y="526"/>
      <point x="505" y="529"/>
      <point x="505" y="541" type="curve" smooth="yes"/>
      <point x="505" y="568"/>
      <point x="497" y="606"/>
      <point x="491" y="638" type="curve" smooth="yes"/>
      <point x="489" y="649"/>
      <point x="481" y="653"/>
      <point x="472" y="653" type="curve" smooth="yes"/>
      <point x="467" y="653"/>
      <point x="432" y="652"/>
      <point x="387" y="651" type="curve" smooth="yes"/>
      <point x="345" y="651"/>
      <point x="294" y="650"/>
      <point x="250" y="650" type="curve" smooth="yes"/>
      <point x="180" y="650"/>
      <point x="148" y="653"/>
      <point x="73" y="653" type="curve" smooth="yes"/>
      <point x="56" y="653"/>
      <point x="44" y="652"/>
      <point x="44" y="649" type="curve" smooth="yes"/>
      <point x="44" y="645"/>
      <point x="54" y="643"/>
      <point x="77" y="641" type="curve" smooth="yes"/>
      <point x="127" y="638"/>
      <point x="144" y="631"/>
      <point x="144" y="613" type="curve" smooth="yes"/>
      <point x="144" y="64" type="line" smooth="yes"/>
      <point x="144" y="21"/>
      <point x="131" y="12"/>
      <point x="70" y="7" type="curve" smooth="yes"/>
      <point x="47" y="6"/>
      <point x="37" y="3"/>
      <point x="37" y="0" type="curve" smooth="yes"/>
      <point x="37" y="-4"/>
      <point x="49" y="-5"/>
    </contour>
  </outline>
</glyph>
<glyph name="F" format="1">
  <advance width="519"/>
  <unicode hex="0046"/>
  <outline>
    <contour>
      <point x="66" y="-5" type="curve" smooth="yes"/>
      <point x="120" y="-5"/>
      <point x="143" y="-2"/>
      <point x="192" y="2" type="curve" smooth="yes"/>
      <point x="230" y="-2"/>
      <point x="236" y="-5"/>
      <point x="290" y="-5" type="curve" smooth="yes"/>
      <point x="307" y="-5"/>
      <point x="319" y="-4"/>
      <point x="319" y="0" type="curve" smooth="yes"/>
      <point x="319" y="4"/>
      <point x="309" y="6"/>
      <point x="286" y="8" type="curve" smooth="yes"/>
      <point x="236" y="12"/>
      <point x="222" y="23"/>
      <point x="221" y="51" type="curve" smooth="yes"/>
      <point x="217" y="167"/>
      <point x="217" y="243"/>
      <point x="217" y="304" type="curve" smooth="yes"/>
      <point x="217" y="321"/>
      <point x="228" y="328"/>
      <point x="241" y="329" type="curve" smooth="yes"/>
      <point x="262" y="331"/>
      <point x="283" y="331"/>
      <point x="306" y="331" type="curve" smooth="yes"/>
      <point x="322" y="331"/>
      <point x="353" y="330"/>
      <point x="367" y="330" type="curve" smooth="yes"/>
      <point x="388" y="330"/>
      <point x="396" y="320"/>
      <point x="408" y="282" type="curve" smooth="yes"/>
      <point x="412" y="266"/>
      <point x="419" y="255"/>
      <point x="427" y="255" type="curve" smooth="yes"/>
      <point x="434" y="255"/>
      <point x="435" y="263"/>
      <point x="435" y="272" type="curve" smooth="yes"/>
      <point x="433" y="301"/>
      <point x="432" y="320"/>
      <point x="432" y="340" type="curve" smooth="yes"/>
      <point x="432" y="356"/>
      <point x="433" y="372"/>
      <point x="435" y="395" type="curve" smooth="yes"/>
      <point x="436" y="404"/>
      <point x="432" y="411"/>
      <point x="425" y="411" type="curve" smooth="yes"/>
      <point x="418" y="411"/>
      <point x="410" y="397"/>
      <point x="408" y="390" type="curve" smooth="yes"/>
      <point x="398" y="358"/>
      <point x="387" y="341"/>
      <point x="356" y="341" type="curve" smooth="yes"/>
      <point x="319" y="341"/>
      <point x="269" y="338"/>
      <point x="227" y="338" type="curve" smooth="yes"/>
      <point x="218" y="338"/>
      <point x="217" y="349"/>
      <point x="217" y="360" type="curve"/>
      <point x="216" y="384"/>
      <point x="216" y="433"/>
      <point x="216" y="467" type="curve" smooth="yes"/>
      <point x="216" y="502"/>
      <point x="216" y="567"/>
      <point x="217" y="592" type="curve" smooth="yes"/>
      <point x="218" y="618"/>
      <point x="220" y="642"/>
      <point x="251" y="642" type="curve" smooth="yes"/>
      <point x="385" y="642" type="line" smooth="yes"/>
      <point x="417" y="642"/>
      <point x="434" y="632"/>
      <point x="448" y="607" type="curve" smooth="yes"/>
      <point x="455" y="594"/>
      <point x="464" y="573"/>
      <point x="472" y="544" type="curve" smooth="yes"/>
      <point x="474" y="535"/>
      <point x="478" y="529"/>
      <point x="485" y="529" type="curve" smooth="yes"/>
      <point x="490" y="529"/>
      <point x="492" y="538"/>
      <point x="492" y="550" type="curve" smooth="yes"/>
      <point x="492" y="564"/>
      <point x="490" y="628"/>
      <point x="487" y="651" type="curve" smooth="yes"/>
      <point x="486" y="658"/>
      <point x="476" y="660"/>
      <point x="469" y="660" type="curve" smooth="yes"/>
      <point x="445" y="660"/>
      <point x="413" y="650"/>
      <point x="370" y="650" type="curve"/>
      <point x="329" y="650"/>
      <point x="283" y="650"/>
      <point x="244" y="650" type="curve" smooth="yes"/>
      <point x="175" y="650"/>
      <point x="145" y="653"/>
      <point x="72" y="653" type="curve" smooth="yes"/>
      <point x="55" y="653"/>
      <point x="43" y="652"/>
      <point x="43" y="649" type="curve" smooth="yes"/>
      <point x="43" y="645"/>
      <point x="53" y="643"/>
      <point x="76" y="641" type="curve" smooth="yes"/>
      <point x="126" y="638"/>
      <point x="137" y="627"/>
      <point x="137" y="594" type="curve" smooth="yes"/>
      <point x="137" y="50" type="line" smooth="yes"/>
      <point x="137" y="19"/>
      <point x="120" y="12"/>
      <point x="70" y="8" type="curve" smooth="yes"/>
      <point x="47" y="6"/>
      <point x="37" y="4"/>
      <point x="37" y="0" type="curve" smooth="yes"/>
      <point x="37" y="-4"/>
      <point x="49" y="-5"/>
    </contour>
  </outline>
</glyph>
<glyph name="G" format="1">
  <advance width="729"/>
  <unicode hex="0047"/>
  <outline>
    <contour>
      <point x="392" y="-14" type="curve" smooth="yes"/>
      <point x="519" y="-14"/>
      <point x="610" y="50"/>
      <point x="630" y="53" type="curve" smooth="yes"/>
      <point x="644" y="55"/>
      <point x="644" y="67"/>
      <point x="644" y="72" type="curve" smooth="yes"/>
      <point x="644" y="77"/>
      <point x="635" y="82"/>
      <point x="631" y="89" type="curve"/>
      <point x="628" y="95"/>
      <point x="625" y="98"/>
      <point x="625" y="105" type="curve" smooth="yes"/>
      <point x="625" y="132" type="line" smooth="yes"/>
      <point x="625" y="157"/>
      <point x="630" y="201"/>
      <point x="630" y="226" type="curve" smooth="yes"/>
      <point x="630" y="260"/>
      <point x="638" y="280"/>
      <point x="672" y="280" type="curve" smooth="yes"/>
      <point x="677" y="280"/>
      <point x="693" y="286"/>
      <point x="693" y="287" type="curve" smooth="yes"/>
      <point x="693" y="289"/>
      <point x="677" y="290"/>
      <point x="672" y="290" type="curve" smooth="yes"/>
      <point x="636" y="290"/>
      <point x="618" y="286"/>
      <point x="583" y="286" type="curve" smooth="yes"/>
      <point x="528" y="286"/>
      <point x="506" y="290"/>
      <point x="457" y="290" type="curve" smooth="yes"/>
      <point x="452" y="290"/>
      <point x="437" y="289"/>
      <point x="437" y="287" type="curve" smooth="yes"/>
      <point x="437" y="285"/>
      <point x="452" y="280"/>
      <point x="457" y="280" type="curve" smooth="yes"/>
      <point x="477" y="280"/>
      <point x="530" y="278"/>
      <point x="547" y="274" type="curve" smooth="yes"/>
      <point x="556" y="272"/>
      <point x="560" y="255"/>
      <point x="560" y="223" type="curve" smooth="yes"/>
      <point x="560" y="173"/>
      <point x="558" y="154"/>
      <point x="558" y="134" type="curve" smooth="yes"/>
      <point x="558" y="92"/>
      <point x="543" y="60"/>
      <point x="528" y="42" type="curve" smooth="yes"/>
      <point x="516" y="28"/>
      <point x="483" y="-2"/>
      <point x="406" y="-2" type="curve" smooth="yes"/>
      <point x="273" y="-2"/>
      <point x="144" y="118"/>
      <point x="144" y="324" type="curve" smooth="yes"/>
      <point x="144" y="495"/>
      <point x="249" y="650"/>
      <point x="404" y="650" type="curve" smooth="yes"/>
      <point x="499" y="650"/>
      <point x="550" y="611"/>
      <point x="570" y="588" type="curve" smooth="yes"/>
      <point x="587" y="568"/>
      <point x="592" y="537"/>
      <point x="598" y="513" type="curve" smooth="yes"/>
      <point x="602" y="499"/>
      <point x="606" y="481"/>
      <point x="619" y="481" type="curve" smooth="yes"/>
      <point x="626" y="481"/>
      <point x="632" y="491"/>
      <point x="632" y="501" type="curve" smooth="yes"/>
      <point x="632" y="527"/>
      <point x="627" y="579"/>
      <point x="622" y="618" type="curve" smooth="yes"/>
      <point x="621" y="625"/>
      <point x="619" y="627"/>
      <point x="613" y="630" type="curve" smooth="yes"/>
      <point x="586" y="643"/>
      <point x="459" y="663"/>
      <point x="413" y="663" type="curve" smooth="yes"/>
      <point x="214" y="663"/>
      <point x="45" y="509"/>
      <point x="45" y="311" type="curve" smooth="yes"/>
      <point x="45" y="126"/>
      <point x="207" y="-14"/>
    </contour>
  </outline>
</glyph>
<glyph name="I" format="1">
  <advance width="340"/>
  <unicode hex="0049"/>
  <outline>
    <contour>
      <point x="48" y="-5" type="curve" smooth="yes"/>
      <point x="102" y="-5"/>
      <point x="126" y="-3"/>
      <point x="176" y="-3" type="curve" smooth="yes"/>
      <point x="222" y="-3"/>
      <point x="239" y="-5"/>
      <point x="293" y="-5" type="curve" smooth="yes"/>
      <point x="310" y="-5"/>
      <point x="322" y="-4"/>
      <point x="322" y="-1" type="curve" smooth="yes"/>
      <point x="322" y="2"/>
      <point x="312" y="3"/>
      <point x="289" y="5" type="curve" smooth="yes"/>
      <point x="239" y="8"/>
      <point x="210" y="13"/>
      <point x="210" y="30" type="curve" smooth="yes"/>
      <point x="210" y="611" type="line" smooth="yes"/>
      <point x="210" y="630"/>
      <point x="231" y="637"/>
      <point x="281" y="640" type="curve" smooth="yes"/>
      <point x="304" y="642"/>
      <point x="314" y="645"/>
      <point x="314" y="649" type="curve" smooth="yes"/>
      <point x="314" y="652"/>
      <point x="302" y="653"/>
      <point x="285" y="653" type="curve" smooth="yes"/>
      <point x="231" y="653"/>
      <point x="219" y="652"/>
      <point x="176" y="652" type="curve" smooth="yes"/>
      <point x="130" y="652"/>
      <point x="113" y="653"/>
      <point x="59" y="653" type="curve" smooth="yes"/>
      <point x="42" y="653"/>
      <point x="30" y="652"/>
      <point x="30" y="649" type="curve" smooth="yes"/>
      <point x="30" y="645"/>
      <point x="40" y="642"/>
      <point x="63" y="640" type="curve" smooth="yes"/>
      <point x="113" y="637"/>
      <point x="130" y="630"/>
      <point x="130" y="611" type="curve" smooth="yes"/>
      <point x="130" y="30" type="line" smooth="yes"/>
      <point x="130" y="13"/>
      <point x="102" y="8"/>
      <point x="52" y="5" type="curve" smooth="yes"/>
      <point x="29" y="3"/>
      <point x="19" y="2"/>
      <point x="19" y="-1" type="curve" smooth="yes"/>
      <point x="19" y="-4"/>
      <point x="31" y="-5"/>
    </contour>
  </outline>
</glyph>
<glyph name="K" format="1">
  <advance width="681"/>
  <unicode hex="004B"/>
  <outline>
    <contour>
      <point x="60" y="-5" type="curve" smooth="yes"/>
      <point x="114" y="-5"/>
      <point x="137" y="2"/>
      <point x="186" y="2" type="curve" smooth="yes"/>
      <point x="224" y="2"/>
      <point x="230" y="-5"/>
      <point x="284" y="-5" type="curve" smooth="yes"/>
      <point x="301" y="-5"/>
      <point x="313" y="-4"/>
      <point x="313" y="-2" type="curve" smooth="yes"/>
      <point x="313" y="1"/>
      <point x="303" y="3"/>
      <point x="280" y="4" type="curve" smooth="yes"/>
      <point x="230" y="7"/>
      <point x="218" y="17"/>
      <point x="217" y="35" type="curve" smooth="yes"/>
      <point x="213" y="190"/>
      <point x="211" y="239"/>
      <point x="211" y="302" type="curve" smooth="yes"/>
      <point x="211" y="309"/>
      <point x="210" y="323"/>
      <point x="215" y="323" type="curve" smooth="yes"/>
      <point x="220" y="323"/>
      <point x="230" y="314"/>
      <point x="238" y="306" type="curve"/>
      <point x="480" y="38" type="line" smooth="yes"/>
      <point x="487" y="31"/>
      <point x="490" y="26"/>
      <point x="489" y="22" type="curve" smooth="yes"/>
      <point x="488" y="13"/>
      <point x="471" y="11"/>
      <point x="437" y="8" type="curve" smooth="yes"/>
      <point x="418" y="7"/>
      <point x="410" y="6"/>
      <point x="410" y="3" type="curve" smooth="yes"/>
      <point x="410" y="0"/>
      <point x="422" y="-1"/>
      <point x="439" y="-1" type="curve" smooth="yes"/>
      <point x="484" y="-1"/>
      <point x="495" y="0"/>
      <point x="520" y="0" type="curve" smooth="yes"/>
      <point x="575" y="0"/>
      <point x="600" y="-5"/>
      <point x="659" y="-5" type="curve" smooth="yes"/>
      <point x="676" y="-5"/>
      <point x="688" y="-4"/>
      <point x="688" y="-1" type="curve" smooth="yes"/>
      <point x="688" y="2"/>
      <point x="678" y="5"/>
      <point x="659" y="5" type="curve" smooth="yes"/>
      <point x="636" y="5"/>
      <point x="627" y="8"/>
      <point x="583" y="55" type="curve" smooth="yes"/>
      <point x="286" y="371" type="line" smooth="yes"/>
      <point x="279" y="378"/>
      <point x="276" y="384"/>
      <point x="281" y="389" type="curve"/>
      <point x="351" y="466"/>
      <point x="427" y="543"/>
      <point x="499" y="604" type="curve" smooth="yes"/>
      <point x="545" y="643"/>
      <point x="556" y="644"/>
      <point x="642" y="644" type="curve" smooth="yes"/>
      <point x="665" y="644"/>
      <point x="675" y="648"/>
      <point x="675" y="651" type="curve" smooth="yes"/>
      <point x="675" y="654"/>
      <point x="666" y="655"/>
      <point x="653" y="655" type="curve" smooth="yes"/>
      <point x="640" y="655"/>
      <point x="548" y="651"/>
      <point x="491" y="651" type="curve" smooth="yes"/>
      <point x="437" y="651" type="line" smooth="yes"/>
      <point x="420" y="651"/>
      <point x="408" y="650"/>
      <point x="408" y="648" type="curve" smooth="yes"/>
      <point x="408" y="645"/>
      <point x="415" y="641"/>
      <point x="439" y="641" type="curve" smooth="yes"/>
      <point x="477" y="641"/>
      <point x="493" y="637"/>
      <point x="493" y="626" type="curve" smooth="yes"/>
      <point x="493" y="618"/>
      <point x="482" y="606"/>
      <point x="465" y="589" type="curve" smooth="yes"/>
      <point x="243" y="363" type="line"/>
      <point x="236" y="355"/>
      <point x="223" y="345"/>
      <point x="216" y="345" type="curve" smooth="yes"/>
      <point x="211" y="345"/>
      <point x="211" y="359"/>
      <point x="211" y="364" type="curve" smooth="yes"/>
      <point x="211" y="616" type="line" smooth="yes"/>
      <point x="211" y="628"/>
      <point x="212" y="643"/>
      <point x="265" y="644" type="curve" smooth="yes"/>
      <point x="288" y="644"/>
      <point x="298" y="648"/>
      <point x="298" y="650" type="curve" smooth="yes"/>
      <point x="298" y="652"/>
      <point x="286" y="653"/>
      <point x="269" y="653" type="curve" smooth="yes"/>
      <point x="215" y="653"/>
      <point x="210" y="651"/>
      <point x="172" y="651" type="curve" smooth="yes"/>
      <point x="128" y="651"/>
      <point x="114" y="653"/>
      <point x="60" y="653" type="curve" smooth="yes"/>
      <point x="43" y="653"/>
      <point x="31" y="652"/>
      <point x="31" y="649" type="curve" smooth="yes"/>
      <point x="31" y="646"/>
      <point x="41" y="642"/>
      <point x="64" y="642" type="curve" smooth="yes"/>
      <point x="121" y="642"/>
      <point x="131" y="632"/>
      <point x="131" y="608" type="curve" smooth="yes"/>
      <point x="131" y="33" type="line" smooth="yes"/>
      <point x="131" y="12"/>
      <point x="114" y="7"/>
      <point x="64" y="4" type="curve" smooth="yes"/>
      <point x="41" y="3"/>
      <point x="31" y="1"/>
      <point x="31" y="-2" type="curve" smooth="yes"/>
      <point x="31" y="-4"/>
      <point x="43" y="-5"/>
    </contour>
  </outline>
</glyph>
<glyph name="M" format="1">
  <advance width="901"/>
  <unicode hex="004D"/>
  <outline>
    <contour>
      <point x="102" y="-5"/>
      <point x="103" y="0"/>
      <point x="139" y="0" type="curve" smooth="yes"/>
      <point x="176" y="0"/>
      <point x="179" y="-5"/>
      <point x="233" y="-5" type="curve" smooth="yes"/>
      <point x="250" y="-5"/>
      <point x="262" y="-4"/>
      <point x="262" y="0" type="curve" smooth="yes"/>
      <point x="262" y="4"/>
      <point x="252" y="5"/>
      <point x="229" y="7" type="curve" smooth="yes"/>
      <point x="169" y="12"/>
      <point x="146" y="20"/>
      <point x="146" y="65" type="curve" smooth="yes"/>
      <point x="146" y="236"/>
      <point x="164" y="400"/>
      <point x="170" y="535" type="curve" smooth="yes"/>
      <point x="170" y="542"/>
      <point x="180" y="542"/>
      <point x="183" y="535" type="curve" smooth="yes"/>
      <point x="258" y="360"/>
      <point x="341" y="152"/>
      <point x="393" y="-4" type="curve" smooth="yes"/>
      <point x="396" y="-13"/>
      <point x="408" y="-12"/>
      <point x="411" y="-5" type="curve" smooth="yes"/>
      <point x="639" y="503" type="line" smooth="yes"/>
      <point x="645" y="516"/>
      <point x="653" y="517"/>
      <point x="655" y="503" type="curve"/>
      <point x="661" y="368"/>
      <point x="669" y="240"/>
      <point x="669" y="34" type="curve" smooth="yes"/>
      <point x="669" y="15"/>
      <point x="657" y="9"/>
      <point x="618" y="7" type="curve" smooth="yes"/>
      <point x="595" y="5"/>
      <point x="585" y="3"/>
      <point x="585" y="0" type="curve" smooth="yes"/>
      <point x="585" y="-3"/>
      <point x="597" y="-5"/>
      <point x="614" y="-5" type="curve" smooth="yes"/>
      <point x="668" y="-5"/>
      <point x="678" y="0"/>
      <point x="719" y="0" type="curve" smooth="yes"/>
      <point x="765" y="0"/>
      <point x="782" y="-5"/>
      <point x="836" y="-5" type="curve" smooth="yes"/>
      <point x="853" y="-5"/>
      <point x="865" y="-3"/>
      <point x="865" y="0" type="curve" smooth="yes"/>
      <point x="865" y="3"/>
      <point x="855" y="5"/>
      <point x="832" y="7" type="curve" smooth="yes"/>
      <point x="782" y="10"/>
      <point x="759" y="19"/>
      <point x="757" y="34" type="curve" smooth="yes"/>
      <point x="749" y="246"/>
      <point x="735" y="382"/>
      <point x="735" y="602" type="curve" smooth="yes"/>
      <point x="735" y="631"/>
      <point x="741" y="637"/>
      <point x="759" y="640" type="curve" smooth="yes"/>
      <point x="777" y="642"/>
      <point x="800" y="645"/>
      <point x="818" y="646" type="curve" smooth="yes"/>
      <point x="838" y="649"/>
      <point x="844" y="650"/>
      <point x="844" y="653" type="curve" smooth="yes"/>
      <point x="844" y="656"/>
      <point x="829" y="656"/>
      <point x="823" y="656" type="curve" smooth="yes"/>
      <point x="800" y="656"/>
      <point x="749" y="648"/>
      <point x="709" y="648" type="curve" smooth="yes"/>
      <point x="673" y="648" type="line" smooth="yes"/>
      <point x="668" y="648"/>
      <point x="665" y="643"/>
      <point x="663" y="635" type="curve" smooth="yes"/>
      <point x="659" y="614"/>
      <point x="647" y="552"/>
      <point x="641" y="530" type="curve"/>
      <point x="454" y="113" type="line" smooth="yes"/>
      <point x="450" y="103"/>
      <point x="443" y="106"/>
      <point x="439" y="116" type="curve" smooth="yes"/>
      <point x="267" y="554" type="line" smooth="yes"/>
      <point x="257" y="579"/>
      <point x="252" y="607"/>
      <point x="245" y="631" type="curve" smooth="yes"/>
      <point x="242" y="641"/>
      <point x="235" y="647"/>
      <point x="226" y="647" type="curve" smooth="yes"/>
      <point x="200" y="647"/>
      <point x="102" y="655"/>
      <point x="76" y="655" type="curve" smooth="yes"/>
      <point x="56" y="655"/>
      <point x="42" y="655"/>
      <point x="42" y="652" type="curve" smooth="yes"/>
      <point x="42" y="650"/>
      <point x="51" y="648"/>
      <point x="64" y="647" type="curve" smooth="yes"/>
      <point x="108" y="644"/>
      <point x="131" y="642"/>
      <point x="143" y="635" type="curve" smooth="yes"/>
      <point x="152" y="629"/>
      <point x="155" y="620"/>
      <point x="155" y="605" type="curve" smooth="yes"/>
      <point x="156" y="594"/>
      <point x="155" y="581"/>
      <point x="155" y="564" type="curve" smooth="yes"/>
      <point x="155" y="444"/>
      <point x="145" y="280"/>
      <point x="124" y="62" type="curve" smooth="yes"/>
      <point x="120" y="18"/>
      <point x="106" y="11"/>
      <point x="52" y="6" type="curve" smooth="yes"/>
      <point x="29" y="4"/>
      <point x="19" y="4"/>
      <point x="19" y="0" type="curve" smooth="yes"/>
      <point x="19" y="-4"/>
      <point x="31" y="-5"/>
      <point x="48" y="-5" type="curve" smooth="yes"/>
    </contour>
  </outline>
</glyph>
<glyph name="N" format="1">
  <advance width="792"/>
  <unicode hex="004E"/>
  <outline>
    <contour>
      <point x="668" y="-17" type="curve" smooth="yes"/>
      <point x="678" y="-17"/>
      <point x="689" y="-13"/>
      <point x="689" y="8" type="curve" smooth="yes"/>
      <point x="689" y="21"/>
      <point x="684" y="57"/>
      <point x="684" y="105" type="curve" smooth="yes"/>
      <point x="684" y="322"/>
      <point x="685" y="472"/>
      <point x="685" y="581" type="curve" smooth="yes"/>
      <point x="686" y="626"/>
      <point x="706" y="633"/>
      <point x="749" y="640" type="curve" smooth="yes"/>
      <point x="772" y="644"/>
      <point x="782" y="645"/>
      <point x="782" y="648" type="curve" smooth="yes"/>
      <point x="782" y="651"/>
      <point x="771" y="652"/>
      <point x="757" y="652" type="curve" smooth="yes"/>
      <point x="709" y="652"/>
      <point x="705" y="647"/>
      <point x="674" y="647" type="curve" smooth="yes"/>
      <point x="641" y="647"/>
      <point x="639" y="652"/>
      <point x="592" y="652" type="curve" smooth="yes"/>
      <point x="577" y="652"/>
      <point x="566" y="651"/>
      <point x="566" y="648" type="curve" smooth="yes"/>
      <point x="566" y="645"/>
      <point x="577" y="645"/>
      <point x="602" y="642" type="curve" smooth="yes"/>
      <point x="659" y="635"/>
      <point x="671" y="624"/>
      <point x="671" y="583" type="curve" smooth="yes"/>
      <point x="671" y="420"/>
      <point x="670" y="218"/>
      <point x="670" y="119" type="curve" smooth="yes"/>
      <point x="669" y="104"/>
      <point x="665" y="98"/>
      <point x="660" y="98" type="curve" smooth="yes"/>
      <point x="652" y="98"/>
      <point x="640" y="112"/>
      <point x="635" y="118" type="curve" smooth="yes"/>
      <point x="615" y="142"/>
      <point x="232" y="609"/>
      <point x="213" y="636" type="curve"/>
      <point x="206" y="645"/>
      <point x="201" y="653"/>
      <point x="189" y="653" type="curve" smooth="yes"/>
      <point x="117" y="653"/>
      <point x="113" y="656"/>
      <point x="35" y="658" type="curve" smooth="yes"/>
      <point x="28" y="658"/>
      <point x="12" y="657"/>
      <point x="12" y="655" type="curve" smooth="yes"/>
      <point x="12" y="651"/>
      <point x="28" y="649"/>
      <point x="40" y="649" type="curve" smooth="yes"/>
      <point x="103" y="646"/>
      <point x="142" y="626"/>
      <point x="142" y="574" type="curve" smooth="yes"/>
      <point x="142" y="342"/>
      <point x="132" y="182"/>
      <point x="127" y="66" type="curve" smooth="yes"/>
      <point x="126" y="21"/>
      <point x="109" y="13"/>
      <point x="66" y="7" type="curve" smooth="yes"/>
      <point x="43" y="3"/>
      <point x="33" y="2"/>
      <point x="33" y="-1" type="curve" smooth="yes"/>
      <point x="33" y="-4"/>
      <point x="44" y="-5"/>
      <point x="58" y="-5" type="curve" smooth="yes"/>
      <point x="106" y="-5"/>
      <point x="107" y="0"/>
      <point x="138" y="0" type="curve" smooth="yes"/>
      <point x="171" y="0"/>
      <point x="173" y="-5"/>
      <point x="220" y="-5" type="curve" smooth="yes"/>
      <point x="235" y="-5"/>
      <point x="246" y="-4"/>
      <point x="246" y="-1" type="curve" smooth="yes"/>
      <point x="246" y="2"/>
      <point x="235" y="4"/>
      <point x="210" y="5" type="curve" smooth="yes"/>
      <point x="153" y="11"/>
      <point x="141" y="23"/>
      <point x="141" y="64" type="curve" smooth="yes"/>
      <point x="141" y="227"/>
      <point x="153" y="420"/>
      <point x="153" y="519" type="curve" smooth="yes"/>
      <point x="153" y="527"/>
      <point x="156" y="540"/>
      <point x="163" y="540" type="curve" smooth="yes"/>
      <point x="168" y="540"/>
      <point x="174" y="536"/>
      <point x="184" y="524" type="curve" smooth="yes"/>
      <point x="207" y="496"/>
      <point x="564" y="71"/>
      <point x="582" y="46" type="curve" smooth="yes"/>
      <point x="614" y="2"/>
      <point x="656" y="-17"/>
    </contour>
  </outline>
</glyph>
<glyph name="O" format="1">
  <advance width="763"/>
  <unicode hex="004F"/>
  <outline>
    <contour>
      <point x="377" y="-14" type="curve" smooth="yes"/>
      <point x="599" y="-14"/>
      <point x="718" y="155"/>
      <point x="718" y="335" type="curve" smooth="yes"/>
      <point x="718" y="532"/>
      <point x="562" y="664"/>
      <point x="386" y="664" type="curve" smooth="yes"/>
      <point x="164" y="664"/>
      <point x="45" y="495"/>
      <point x="45" y="315" type="curve" smooth="yes"/>
      <point x="45" y="118"/>
      <point x="201" y="-14"/>
    </contour>
    <contour>
      <point x="392" y="-5" type="curve" smooth="yes"/>
      <point x="225" y="-5"/>
      <point x="141" y="163"/>
      <point x="141" y="369" type="curve" smooth="yes"/>
      <point x="141" y="542"/>
      <point x="219" y="653"/>
      <point x="370" y="653" type="curve" smooth="yes"/>
      <point x="537" y="653"/>
      <point x="622" y="487"/>
      <point x="622" y="282" type="curve" smooth="yes"/>
      <point x="622" y="109"/>
      <point x="545" y="-5"/>
    </contour>
  </outline>
</glyph>
<glyph name="R" format="1">
  <advance width="713"/>
  <unicode hex="0052"/>
  <outline>
    <contour>
      <point x="637" y="-21" type="curve" smooth="yes"/>
      <point x="662" y="-21"/>
      <point x="718" y="-19"/>
      <point x="718" y="-9" type="curve" smooth="yes"/>
      <point x="718" y="-7"/>
      <point x="713" y="-6"/>
      <point x="703" y="-6" type="curve" smooth="yes"/>
      <point x="670" y="-6"/>
      <point x="652" y="4"/>
      <point x="623" y="27" type="curve" smooth="yes"/>
      <point x="507" y="122"/>
      <point x="443" y="224"/>
      <point x="381" y="318" type="curve" smooth="yes"/>
      <point x="377" y="324"/>
      <point x="376" y="329"/>
      <point x="381" y="331" type="curve"/>
      <point x="436" y="359"/>
      <point x="503" y="403"/>
      <point x="503" y="493" type="curve" smooth="yes"/>
      <point x="503" y="602"/>
      <point x="424" y="657"/>
      <point x="278" y="657" type="curve" smooth="yes"/>
      <point x="220" y="657"/>
      <point x="201" y="652"/>
      <point x="163" y="652" type="curve" smooth="yes"/>
      <point x="122" y="652"/>
      <point x="119" y="653"/>
      <point x="65" y="653" type="curve" smooth="yes"/>
      <point x="48" y="653"/>
      <point x="36" y="652"/>
      <point x="36" y="649" type="curve" smooth="yes"/>
      <point x="36" y="645"/>
      <point x="46" y="642"/>
      <point x="69" y="641" type="curve" smooth="yes"/>
      <point x="126" y="638"/>
      <point x="130" y="633"/>
      <point x="130" y="570" type="curve" smooth="yes"/>
      <point x="130" y="60" type="line" smooth="yes"/>
      <point x="130" y="18"/>
      <point x="119" y="11"/>
      <point x="57" y="7" type="curve" smooth="yes"/>
      <point x="34" y="5"/>
      <point x="24" y="3"/>
      <point x="24" y="-1" type="curve" smooth="yes"/>
      <point x="24" y="-4"/>
      <point x="36" y="-5"/>
      <point x="53" y="-5" type="curve" smooth="yes"/>
      <point x="107" y="-5"/>
      <point x="132" y="2"/>
      <point x="183" y="2" type="curve" smooth="yes"/>
      <point x="221" y="2"/>
      <point x="227" y="-5"/>
      <point x="281" y="-5" type="curve" smooth="yes"/>
      <point x="298" y="-5"/>
      <point x="310" y="-4"/>
      <point x="310" y="-1" type="curve" smooth="yes"/>
      <point x="310" y="3"/>
      <point x="300" y="5"/>
      <point x="277" y="7" type="curve" smooth="yes"/>
      <point x="223" y="10"/>
      <point x="210" y="18"/>
      <point x="210" y="58" type="curve" smooth="yes"/>
      <point x="210" y="286" type="line" smooth="yes"/>
      <point x="210" y="298"/>
      <point x="214" y="307"/>
      <point x="225" y="306" type="curve" smooth="yes"/>
      <point x="243" y="304"/>
      <point x="275" y="299"/>
      <point x="304" y="285" type="curve" smooth="yes"/>
      <point x="324" y="275"/>
      <point x="336" y="264"/>
      <point x="347" y="246" type="curve" smooth="yes"/>
      <point x="416" y="134"/>
      <point x="450" y="93"/>
      <point x="499" y="33" type="curve" smooth="yes"/>
      <point x="534" y="-10"/>
      <point x="580" y="-21"/>
    </contour>
    <contour>
      <point x="263" y="315" type="curve" smooth="yes"/>
      <point x="230" y="315"/>
      <point x="210" y="317"/>
      <point x="210" y="353" type="curve" smooth="yes"/>
      <point x="210" y="441"/>
      <point x="211" y="502"/>
      <point x="212" y="539" type="curve" smooth="yes"/>
      <point x="215" y="615"/>
      <point x="223" y="641"/>
      <point x="266" y="641" type="curve" smooth="yes"/>
      <point x="392" y="641"/>
      <point x="413" y="566"/>
      <point x="413" y="477" type="curve" smooth="yes"/>
      <point x="413" y="377"/>
      <point x="386" y="315"/>
    </contour>
  </outline>
</glyph>
<glyph name="U" format="1">
  <advance width="738"/>
  <unicode hex="0055"/>
  <outline>
    <contour>
      <point x="504" y="-14"/>
      <point x="611" y="95"/>
      <point x="616" y="250" type="curve" smooth="yes"/>
      <point x="619" y="342"/>
      <point x="619" y="432"/>
      <point x="626" y="585" type="curve" smooth="yes"/>
      <point x="629" y="628"/>
      <point x="644" y="637"/>
      <point x="687" y="642" type="curve" smooth="yes"/>
      <point x="716" y="645"/>
      <point x="728" y="647"/>
      <point x="728" y="650" type="curve" smooth="yes"/>
      <point x="728" y="652"/>
      <point x="716" y="653"/>
      <point x="699" y="653" type="curve" smooth="yes"/>
      <point x="676" y="653"/>
      <point x="650" y="650"/>
      <point x="618" y="650" type="curve" smooth="yes"/>
      <point x="589" y="650"/>
      <point x="573" y="651"/>
      <point x="543" y="652" type="curve" smooth="yes"/>
      <point x="526" y="652"/>
      <point x="514" y="652"/>
      <point x="514" y="649" type="curve" smooth="yes"/>
      <point x="514" y="646"/>
      <point x="538" y="644"/>
      <point x="556" y="640" type="curve" smooth="yes"/>
      <point x="591" y="634"/>
      <point x="606" y="616"/>
      <point x="608" y="556" type="curve" smooth="yes"/>
      <point x="610" y="434"/>
      <point x="609" y="340"/>
      <point x="609" y="296" type="curve" smooth="yes"/>
      <point x="609" y="140"/>
      <point x="547" y="36"/>
      <point x="403" y="36" type="curve" smooth="yes"/>
      <point x="275" y="36"/>
      <point x="183" y="108"/>
      <point x="183" y="268" type="curve" smooth="yes"/>
      <point x="183" y="587" type="line" smooth="yes"/>
      <point x="183" y="631"/>
      <point x="198" y="640"/>
      <point x="225" y="642" type="curve" smooth="yes"/>
      <point x="247" y="644"/>
      <point x="258" y="646"/>
      <point x="258" y="650" type="curve" smooth="yes"/>
      <point x="258" y="652"/>
      <point x="246" y="653"/>
      <point x="229" y="653" type="curve" smooth="yes"/>
      <point x="208" y="652"/>
      <point x="180" y="650"/>
      <point x="149" y="650" type="curve" smooth="yes"/>
      <point x="112" y="650"/>
      <point x="83" y="653"/>
      <point x="53" y="653" type="curve" smooth="yes"/>
      <point x="36" y="653"/>
      <point x="24" y="652"/>
      <point x="24" y="650" type="curve" smooth="yes"/>
      <point x="24" y="647"/>
      <point x="34" y="644"/>
      <point x="57" y="642" type="curve" smooth="yes"/>
      <point x="97" y="639"/>
      <point x="103" y="632"/>
      <point x="103" y="580" type="curve" smooth="yes"/>
      <point x="103" y="240" type="line" smooth="yes"/>
      <point x="103" y="87"/>
      <point x="190" y="-14"/>
      <point x="362" y="-14" type="curve" smooth="yes"/>
    </contour>
  </outline>
</glyph>
<glyph name="V" format="1">
  <advance width="664"/>
  <unicode hex="0056"/>
  <outline>
    <contour>
      <point x="318" y="-12" type="curve" smooth="yes"/>
      <point x="322" y="-12"/>
      <point x="326" y="-9"/>
      <point x="328" y="-5" type="curve" smooth="yes"/>
      <point x="339" y="19"/>
      <point x="355" y="69"/>
      <point x="359" y="79" type="curve" smooth="yes"/>
      <point x="567" y="584" type="line" smooth="yes"/>
      <point x="582" y="620"/>
      <point x="588" y="640"/>
      <point x="645" y="643" type="curve" smooth="yes"/>
      <point x="668" y="644"/>
      <point x="678" y="646"/>
      <point x="678" y="649" type="curve" smooth="yes"/>
      <point x="678" y="651"/>
      <point x="668" y="652"/>
      <point x="653" y="652" type="curve" smooth="yes"/>
      <point x="630" y="652"/>
      <point x="588" y="649"/>
      <point x="554" y="649" type="curve" smooth="yes"/>
      <point x="521" y="649"/>
      <point x="491" y="650"/>
      <point x="468" y="650" type="curve" smooth="yes"/>
      <point x="453" y="650"/>
      <point x="443" y="650"/>
      <point x="443" y="647" type="curve" smooth="yes"/>
      <point x="443" y="645"/>
      <point x="454" y="643"/>
      <point x="488" y="641" type="curve" smooth="yes"/>
      <point x="567" y="635"/>
      <point x="574" y="630"/>
      <point x="535" y="535" type="curve" smooth="yes"/>
      <point x="365" y="114" type="line" smooth="yes"/>
      <point x="361" y="105"/>
      <point x="356" y="108"/>
      <point x="354" y="113" type="curve" smooth="yes"/>
      <point x="187" y="555" type="line" smooth="yes"/>
      <point x="184" y="564"/>
      <point x="176" y="581"/>
      <point x="176" y="604" type="curve" smooth="yes"/>
      <point x="176" y="627"/>
      <point x="203" y="639"/>
      <point x="236" y="642" type="curve" smooth="yes"/>
      <point x="264" y="644"/>
      <point x="274" y="647"/>
      <point x="274" y="649" type="curve" smooth="yes"/>
      <point x="274" y="652"/>
      <point x="262" y="653"/>
      <point x="245" y="653" type="curve" smooth="yes"/>
      <point x="225" y="653"/>
      <point x="191" y="650"/>
      <point x="151" y="650" type="curve" smooth="yes"/>
      <point x="105" y="650"/>
      <point x="60" y="653"/>
      <point x="29" y="653" type="curve" smooth="yes"/>
      <point x="12" y="653"/>
      <point x="0" y="652"/>
      <point x="0" y="650" type="curve" smooth="yes"/>
      <point x="0" y="647"/>
      <point x="12" y="644"/>
      <point x="33" y="643" type="curve" smooth="yes"/>
      <point x="63" y="641"/>
      <point x="81" y="607"/>
      <point x="94" y="571" type="curve" smooth="yes"/>
      <point x="286" y="56" type="line" smooth="yes"/>
      <point x="293" y="38"/>
      <point x="301" y="9"/>
      <point x="307" y="-5" type="curve" smooth="yes"/>
      <point x="309" y="-10"/>
      <point x="314" y="-12"/>
    </contour>
  </outline>
</glyph>
<glyph name="X" format="1">
  <advance width="707"/>
  <unicode hex="0058"/>
  <outline>
    <contour>
      <point x="24" y="-4" type="curve" smooth="yes"/>
      <point x="57" y="-4"/>
      <point x="105" y="0"/>
      <point x="150" y="0" type="curve" smooth="yes"/>
      <point x="186" y="0"/>
      <point x="221" y="0"/>
      <point x="239" y="0" type="curve" smooth="yes"/>
      <point x="256" y="0"/>
      <point x="268" y="1"/>
      <point x="268" y="4" type="curve" smooth="yes"/>
      <point x="268" y="7"/>
      <point x="258" y="9"/>
      <point x="235" y="12" type="curve" smooth="yes"/>
      <point x="180" y="19"/>
      <point x="151" y="21"/>
      <point x="151" y="39" type="curve" smooth="yes"/>
      <point x="151" y="48"/>
      <point x="158" y="61"/>
      <point x="172" y="81" type="curve" smooth="yes"/>
      <point x="326" y="278" type="line" smooth="yes"/>
      <point x="333" y="287"/>
      <point x="338" y="287"/>
      <point x="348" y="273" type="curve" smooth="yes"/>
      <point x="473" y="94" type="line"/>
      <point x="482" y="82"/>
      <point x="485" y="71"/>
      <point x="485" y="61" type="curve" smooth="yes"/>
      <point x="485" y="36"/>
      <point x="473" y="20"/>
      <point x="428" y="14" type="curve" smooth="yes"/>
      <point x="414" y="12"/>
      <point x="395" y="10"/>
      <point x="395" y="6" type="curve" smooth="yes"/>
      <point x="395" y="3"/>
      <point x="407" y="2"/>
      <point x="424" y="2" type="curve" smooth="yes"/>
      <point x="448" y="2"/>
      <point x="486" y="3"/>
      <point x="527" y="3" type="curve" smooth="yes"/>
      <point x="574" y="3"/>
      <point x="642" y="-3"/>
      <point x="670" y="-3" type="curve" smooth="yes"/>
      <point x="687" y="-3"/>
      <point x="699" y="-2"/>
      <point x="699" y="1" type="curve" smooth="yes"/>
      <point x="699" y="5"/>
      <point x="689" y="7"/>
      <point x="666" y="9" type="curve" smooth="yes"/>
      <point x="643" y="11"/>
      <point x="602" y="50"/>
      <point x="574" y="91" type="curve" smooth="yes"/>
      <point x="398" y="344" type="line"/>
      <point x="391" y="359"/>
      <point x="396" y="363"/>
      <point x="411" y="384" type="curve" smooth="yes"/>
      <point x="532" y="553" type="line" smooth="yes"/>
      <point x="580" y="620"/>
      <point x="613" y="636"/>
      <point x="663" y="640" type="curve" smooth="yes"/>
      <point x="686" y="642"/>
      <point x="696" y="644"/>
      <point x="696" y="648" type="curve" smooth="yes"/>
      <point x="696" y="651"/>
      <point x="684" y="652"/>
      <point x="667" y="652" type="curve" smooth="yes"/>
      <point x="640" y="652"/>
      <point x="592" y="650"/>
      <point x="553" y="650" type="curve" smooth="yes"/>
      <point x="523" y="650"/>
      <point x="496" y="650"/>
      <point x="472" y="650" type="curve" smooth="yes"/>
      <point x="455" y="650"/>
      <point x="443" y="649"/>
      <point x="443" y="646" type="curve" smooth="yes"/>
      <point x="443" y="642"/>
      <point x="462" y="638"/>
      <point x="476" y="638" type="curve" smooth="yes"/>
      <point x="529" y="638"/>
      <point x="549" y="620"/>
      <point x="549" y="604" type="curve" smooth="yes"/>
      <point x="549" y="591"/>
      <point x="537" y="573"/>
      <point x="523" y="553" type="curve" smooth="yes"/>
      <point x="400" y="383" type="line" smooth="yes"/>
      <point x="389" y="368"/>
      <point x="385" y="365"/>
      <point x="370" y="386" type="curve" smooth="yes"/>
      <point x="249" y="555" type="line" smooth="yes"/>
      <point x="226" y="587"/>
      <point x="216" y="605"/>
      <point x="216" y="617" type="curve" smooth="yes"/>
      <point x="216" y="633"/>
      <point x="245" y="640"/>
      <point x="281" y="643" type="curve" smooth="yes"/>
      <point x="304" y="645"/>
      <point x="314" y="647"/>
      <point x="314" y="650" type="curve" smooth="yes"/>
      <point x="314" y="653"/>
      <point x="302" y="654"/>
      <point x="285" y="654" type="curve" smooth="yes"/>
      <point x="267" y="654"/>
      <point x="230" y="653"/>
      <point x="190" y="653" type="curve" smooth="yes"/>
      <point x="140" y="653"/>
      <point x="80" y="655"/>
      <point x="47" y="655" type="curve" smooth="yes"/>
      <point x="30" y="655"/>
      <point x="18" y="654"/>
      <point x="18" y="651" type="curve" smooth="yes"/>
      <point x="18" y="648"/>
      <point x="30" y="645"/>
      <point x="51" y="643" type="curve" smooth="yes"/>
      <point x="79" y="640"/>
      <point x="103" y="617"/>
      <point x="151" y="551" type="curve" smooth="yes"/>
      <point x="313" y="328" type="line" smooth="yes"/>
      <point x="333" y="301"/>
      <point x="322" y="286"/>
      <point x="307" y="266" type="curve"/>
      <point x="179" y="107" type="line" smooth="yes"/>
      <point x="136" y="54"/>
      <point x="63" y="17"/>
      <point x="37" y="13" type="curve" smooth="yes"/>
      <point x="6" y="8"/>
      <point x="-5" y="4"/>
      <point x="-5" y="0" type="curve" smooth="yes"/>
      <point x="-5" y="-3"/>
      <point x="7" y="-4"/>
    </contour>
  </outline>
</glyph>
<glyph name="Y" format="1">
  <advance width="578"/>
  <unicode hex="0059"/>
  <outline>
    <contour>
      <point x="182" y="-5" type="curve" smooth="yes"/>
      <point x="236" y="-5"/>
      <point x="260" y="-4"/>
      <point x="310" y="-4" type="curve" smooth="yes"/>
      <point x="356" y="-4"/>
      <point x="373" y="-5"/>
      <point x="427" y="-5" type="curve" smooth="yes"/>
      <point x="444" y="-5"/>
      <point x="456" y="-4"/>
      <point x="456" y="-2" type="curve" smooth="yes"/>
      <point x="456" y="0"/>
      <point x="446" y="2"/>
      <point x="423" y="3" type="curve" smooth="yes"/>
      <point x="373" y="5"/>
      <point x="344" y="13"/>
      <point x="344" y="38" type="curve" smooth="yes"/>
      <point x="344" y="283" type="line" smooth="yes"/>
      <point x="344" y="322"/>
      <point x="343" y="330"/>
      <point x="369" y="373" type="curve" smooth="yes"/>
      <point x="415" y="448"/>
      <point x="429" y="475"/>
      <point x="478" y="558" type="curve" smooth="yes"/>
      <point x="511" y="614"/>
      <point x="533" y="635"/>
      <point x="568" y="641" type="curve" smooth="yes"/>
      <point x="594" y="645"/>
      <point x="621" y="646"/>
      <point x="621" y="649" type="curve" smooth="yes"/>
      <point x="621" y="652"/>
      <point x="609" y="653"/>
      <point x="592" y="653" type="curve" smooth="yes"/>
      <point x="569" y="653"/>
      <point x="529" y="652"/>
      <point x="488" y="652" type="curve" smooth="yes"/>
      <point x="459" y="652"/>
      <point x="443" y="652"/>
      <point x="413" y="652" type="curve" smooth="yes"/>
      <point x="396" y="652"/>
      <point x="384" y="651"/>
      <point x="384" y="649" type="curve" smooth="yes"/>
      <point x="384" y="646"/>
      <point x="403" y="643"/>
      <point x="417" y="642" type="curve" smooth="yes"/>
      <point x="464" y="640"/>
      <point x="485" y="627"/>
      <point x="484" y="603" type="curve" smooth="yes"/>
      <point x="484" y="593"/>
      <point x="479" y="581"/>
      <point x="471" y="567" type="curve" smooth="yes"/>
      <point x="437" y="507"/>
      <point x="398" y="437"/>
      <point x="368" y="390" type="curve" smooth="yes"/>
      <point x="350" y="362"/>
      <point x="340" y="336"/>
      <point x="332" y="336" type="curve" smooth="yes"/>
      <point x="326" y="336"/>
      <point x="318" y="348"/>
      <point x="304" y="374" type="curve" smooth="yes"/>
      <point x="180" y="599" type="line" smooth="yes"/>
      <point x="174" y="610"/>
      <point x="167" y="619"/>
      <point x="167" y="627" type="curve" smooth="yes"/>
      <point x="167" y="638"/>
      <point x="189" y="641"/>
      <point x="222" y="642" type="curve" smooth="yes"/>
      <point x="244" y="643"/>
      <point x="255" y="645"/>
      <point x="255" y="648" type="curve" smooth="yes"/>
      <point x="255" y="650"/>
      <point x="243" y="651"/>
      <point x="226" y="651" type="curve" smooth="yes"/>
      <point x="205" y="651"/>
      <point x="177" y="650"/>
      <point x="146" y="650" type="curve" smooth="yes"/>
      <point x="100" y="650"/>
      <point x="59" y="651"/>
      <point x="29" y="651" type="curve" smooth="yes"/>
      <point x="12" y="651"/>
      <point x="0" y="650"/>
      <point x="0" y="648" type="curve" smooth="yes"/>
      <point x="0" y="645"/>
      <point x="11" y="648"/>
      <point x="33" y="642" type="curve" smooth="yes"/>
      <point x="60" y="635"/>
      <point x="72" y="606"/>
      <point x="86" y="583" type="curve" smooth="yes"/>
      <point x="239" y="330" type="line"/>
      <point x="244" y="321"/>
      <point x="264" y="283"/>
      <point x="264" y="256" type="curve" smooth="yes"/>
      <point x="264" y="38" type="line" smooth="yes"/>
      <point x="264" y="12"/>
      <point x="236" y="5"/>
      <point x="186" y="3" type="curve" smooth="yes"/>
      <point x="163" y="2"/>
      <point x="153" y="0"/>
      <point x="153" y="-2" type="curve" smooth="yes"/>
      <point x="153" y="-4"/>
      <point x="165" y="-5"/>
    </contour>
  </outline>
</glyph>
<glyph name="Z" format="1">
  <advance width="603"/>
  <unicode hex="005A"/>
  <outline>
    <contour>
      <point x="533" y="-5" type="curve" smooth="yes"/>
      <point x="543" y="-5"/>
      <point x="547" y="4"/>
      <point x="551" y="12" type="curve" smooth="yes"/>
      <point x="562" y="36"/>
      <point x="588" y="147"/>
      <point x="588" y="158" type="curve" smooth="yes"/>
      <point x="588" y="167"/>
      <point x="585" y="171"/>
      <point x="579" y="171" type="curve" smooth="yes"/>
      <point x="569" y="171"/>
      <point x="560" y="158"/>
      <point x="557" y="148" type="curve" smooth="yes"/>
      <point x="531" y="63"/>
      <point x="492" y="18"/>
      <point x="433" y="13" type="curve" smooth="yes"/>
      <point x="383" y="9"/>
      <point x="331" y="8"/>
      <point x="283" y="8" type="curve" smooth="yes"/>
      <point x="236" y="8"/>
      <point x="193" y="11"/>
      <point x="171" y="13" type="curve" smooth="yes"/>
      <point x="155" y="15"/>
      <point x="151" y="23"/>
      <point x="151" y="31" type="curve" smooth="yes"/>
      <point x="151" y="35"/>
      <point x="152" y="40"/>
      <point x="154" y="43" type="curve" smooth="yes"/>
      <point x="281" y="233"/>
      <point x="371" y="364"/>
      <point x="509" y="550" type="curve" smooth="yes"/>
      <point x="570" y="631" type="line" smooth="yes"/>
      <point x="574" y="636"/>
      <point x="565" y="649"/>
      <point x="559" y="649" type="curve" smooth="yes"/>
      <point x="485" y="647"/>
      <point x="411" y="646"/>
      <point x="328" y="646" type="curve" smooth="yes"/>
      <point x="283" y="646"/>
      <point x="235" y="646"/>
      <point x="202" y="646" type="curve" smooth="yes"/>
      <point x="168" y="646"/>
      <point x="129" y="656"/>
      <point x="116" y="662" type="curve" smooth="yes"/>
      <point x="105" y="667"/>
      <point x="90" y="676"/>
      <point x="85" y="676" type="curve" smooth="yes"/>
      <point x="80" y="676"/>
      <point x="71" y="674"/>
      <point x="70" y="659" type="curve" smooth="yes"/>
      <point x="67" y="617"/>
      <point x="51" y="565"/>
      <point x="46" y="544" type="curve" smooth="yes"/>
      <point x="44" y="534"/>
      <point x="39" y="521"/>
      <point x="39" y="513" type="curve" smooth="yes"/>
      <point x="40" y="506"/>
      <point x="45" y="502"/>
      <point x="51" y="504" type="curve" smooth="yes"/>
      <point x="65" y="507"/>
      <point x="73" y="533"/>
      <point x="77" y="546" type="curve" smooth="yes"/>
      <point x="92" y="589"/>
      <point x="117" y="626"/>
      <point x="179" y="632" type="curve" smooth="yes"/>
      <point x="201" y="634"/>
      <point x="235" y="634"/>
      <point x="270" y="634" type="curve" smooth="yes"/>
      <point x="323" y="634"/>
      <point x="399" y="633"/>
      <point x="435" y="632" type="curve"/>
      <point x="450" y="631"/>
      <point x="454" y="628"/>
      <point x="454" y="624" type="curve" smooth="yes"/>
      <point x="454" y="621"/>
      <point x="452" y="619"/>
      <point x="450" y="616" type="curve" smooth="yes"/>
      <point x="322" y="424"/>
      <point x="222" y="290"/>
      <point x="86" y="104" type="curve" smooth="yes"/>
      <point x="63" y="73"/>
      <point x="28" y="21"/>
      <point x="28" y="11" type="curve"/>
      <point x="28" y="11"/>
      <point x="29" y="-3"/>
      <point x="35" y="-3" type="curve" smooth="yes"/>
      <point x="112" y="-3" type="line" smooth="yes"/>
      <point x="150" y="-3"/>
      <point x="191" y="-2"/>
      <point x="231" y="-2" type="curve" smooth="yes"/>
      <point x="320" y="-2"/>
      <point x="419" y="-5"/>
    </contour>
  </outline>
</glyph>
<glyph name="bracketleft" format="1">
  <advance width="331"/>
  <unicode hex="005B"/>
  <outline>
    <contour>
      <point x="285" y="-200" type="line" smooth="yes"/>
      <point x="297" y="-200"/>
      <point x="311" y="-199"/>
      <point x="311" y="-195" type="curve" smooth="yes"/>
      <point x="311" y="-192"/>
      <point x="298" y="-190"/>
      <point x="285" y="-190" type="curve" smooth="yes"/>
      <point x="206" y="-188" type="line" smooth="yes"/>
      <point x="194" y="-188"/>
      <point x="183" y="-183"/>
      <point x="183" y="-145" type="curve" smooth="yes"/>
      <point x="183" y="650" type="line" smooth="yes"/>
      <point x="183" y="684"/>
      <point x="189" y="688"/>
      <point x="206" y="690" type="curve" smooth="yes"/>
      <point x="285" y="692" type="line" smooth="yes"/>
      <point x="298" y="692"/>
      <point x="311" y="693"/>
      <point x="311" y="697" type="curve" smooth="yes"/>
      <point x="311" y="700"/>
      <point x="302" y="701"/>
      <point x="293" y="701" type="curve" smooth="yes"/>
      <point x="148" y="702" type="line" smooth="yes"/>
      <point x="116" y="702"/>
      <point x="110" y="702"/>
      <point x="110" y="668" type="curve" smooth="yes"/>
      <point x="110" y="-175" type="line" smooth="yes"/>
      <point x="110" y="-199"/>
      <point x="118" y="-200"/>
      <point x="141" y="-200" type="curve" smooth="yes"/>
    </contour>
  </outline>
</glyph>
<glyph name="asciicircum" format="1">
  <advance width="500"/>
  <unicode hex="005E"/>
  <outline>
    <contour>
      <point x="46" y="284" type="curve" smooth="yes"/>
      <point x="48" y="284"/>
      <point x="53" y="286"/>
      <point x="55" y="289" type="curve" smooth="yes"/>
      <point x="248" y="585" type="line"/>
      <point x="248" y="586"/>
      <point x="249" y="586"/>
      <point x="250" y="585" type="curve"/>
      <point x="449" y="290" type="line" smooth="yes"/>
      <point x="451" y="287"/>
      <point x="455" y="285"/>
      <point x="457" y="285" type="curve" smooth="yes"/>
      <point x="459" y="285"/>
      <point x="461" y="289"/>
      <point x="459" y="290" type="curve"/>
      <point x="249" y="605" type="line"/>
      <point x="248" y="605" type="line"/>
      <point x="45" y="289" type="line"/>
      <point x="45" y="289"/>
      <point x="43" y="288"/>
      <point x="43" y="286" type="curve" smooth="yes"/>
      <point x="43" y="285"/>
      <point x="45" y="284"/>
    </contour>
  </outline>
</glyph>
<glyph name="underscore" format="1">
  <advance width="500"/>
  <unicode hex="005F"/>
  <outline>
    <contour>
      <point x="493" y="-163" type="line" smooth="yes"/>
      <point x="497" y="-163"/>
      <point x="500" y="-159"/>
      <point x="500" y="-156" type="curve" smooth="yes"/>
      <point x="500" y="-155"/>
      <point x="498" y="-153"/>
      <point x="497" y="-153" type="curve" smooth="yes"/>
      <point x="6" y="-153" type="line" smooth="yes"/>
      <point x="2" y="-153"/>
      <point x="0" y="-160"/>
      <point x="0" y="-160" type="curve" smooth="yes"/>
      <point x="0" y="-161"/>
      <point x="2" y="-163"/>
      <point x="3" y="-163" type="curve" smooth="yes"/>
    </contour>
  </outline>
</glyph>
<glyph name="grave" format="1">
  <advance width="191"/>
  <unicode hex="0060"/>
  <outline>
    <contour>
      <point x="171" y="457"/>
      <point x="169" y="456"/>
      <point x="169" y="463" type="curve" smooth="yes"/>
      <point x="169" y="467"/>
      <point x="167" y="475"/>
      <point x="164" y="483" type="curve" smooth="yes"/>
      <point x="152" y="520"/>
      <point x="114" y="604"/>
      <point x="98" y="631" type="curve" smooth="yes"/>
      <point x="92" y="641"/>
      <point x="81" y="649"/>
      <point x="71" y="649" type="curve" smooth="yes"/>
      <point x="46" y="649"/>
      <point x="22" y="642"/>
      <point x="22" y="628" type="curve" smooth="yes"/>
      <point x="22" y="620"/>
      <point x="26" y="616"/>
      <point x="32" y="607" type="curve" smooth="yes"/>
      <point x="56" y="572"/>
      <point x="120" y="500"/>
      <point x="150" y="472" type="curve" smooth="yes"/>
      <point x="157" y="465"/>
      <point x="165" y="457"/>
      <point x="167" y="457" type="curve" smooth="yes"/>
    </contour>
  </outline>
</glyph>
<glyph name="a" format="1">
  <advance width="399"/>
  <unicode hex="0061"/>
  <outline>
    <contour>
      <point x="117" y="-14" type="curve" smooth="yes"/>
      <point x="160" y="-14"/>
      <point x="212" y="13"/>
      <point x="242" y="58" type="curve"/>
      <point x="245" y="58" type="line"/>
      <point x="253" y="11"/>
      <point x="287" y="-14"/>
      <point x="318" y="-14" type="curve" smooth="yes"/>
      <point x="340" y="-14"/>
      <point x="366" y="5"/>
      <point x="392" y="35" type="curve" smooth="yes"/>
      <point x="395" y="38"/>
      <point x="398" y="44"/>
      <point x="398" y="47" type="curve" smooth="yes"/>
      <point x="398" y="49"/>
      <point x="399" y="52"/>
      <point x="395" y="52" type="curve" smooth="yes"/>
      <point x="391" y="52"/>
      <point x="389" y="47"/>
      <point x="384" y="41" type="curve" smooth="yes"/>
      <point x="375" y="30"/>
      <point x="359" y="20"/>
      <point x="346" y="20" type="curve" smooth="yes"/>
      <point x="318" y="20"/>
      <point x="305" y="39"/>
      <point x="306" y="73" type="curve" smooth="yes"/>
      <point x="311" y="325" type="line" smooth="yes"/>
      <point x="312" y="376"/>
      <point x="277" y="414"/>
      <point x="229" y="414" type="curve" smooth="yes"/>
      <point x="189" y="414"/>
      <point x="125" y="384"/>
      <point x="80" y="343" type="curve" smooth="yes"/>
      <point x="55" y="321"/>
      <point x="40" y="295"/>
      <point x="40" y="274" type="curve" smooth="yes"/>
      <point x="40" y="269"/>
      <point x="44" y="265"/>
      <point x="51" y="265" type="curve" smooth="yes"/>
      <point x="71" y="265"/>
      <point x="117" y="290"/>
      <point x="117" y="300" type="curve" smooth="yes"/>
      <point x="117" y="305"/>
      <point x="116" y="313"/>
      <point x="116" y="318" type="curve" smooth="yes"/>
      <point x="116" y="342"/>
      <point x="120" y="359"/>
      <point x="129" y="369" type="curve" smooth="yes"/>
      <point x="139" y="382"/>
      <point x="156" y="386"/>
      <point x="181" y="386" type="curve" smooth="yes"/>
      <point x="219" y="386"/>
      <point x="241" y="353"/>
      <point x="240" y="312" type="curve" smooth="yes"/>
      <point x="238" y="237" type="line" smooth="yes"/>
      <point x="237" y="210"/>
      <point x="236" y="208"/>
      <point x="210" y="197" type="curve" smooth="yes"/>
      <point x="108" y="155" type="line" smooth="yes"/>
      <point x="59" y="135"/>
      <point x="37" y="114"/>
      <point x="37" y="72" type="curve" smooth="yes"/>
      <point x="37" y="35"/>
      <point x="81" y="-14"/>
    </contour>
    <contour>
      <point x="164" y="13" type="curve" smooth="yes"/>
      <point x="140" y="13"/>
      <point x="115" y="45"/>
      <point x="115" y="90" type="curve" smooth="yes"/>
      <point x="115" y="121"/>
      <point x="135" y="156"/>
      <point x="209" y="191" type="curve" smooth="yes"/>
      <point x="220" y="196"/>
      <point x="226" y="196"/>
      <point x="229" y="196" type="curve" smooth="yes"/>
      <point x="237" y="196"/>
      <point x="239" y="188"/>
      <point x="238" y="169" type="curve" smooth="yes"/>
      <point x="236" y="97" type="line" smooth="yes"/>
      <point x="235" y="65"/>
      <point x="231" y="52"/>
      <point x="224" y="43" type="curve" smooth="yes"/>
      <point x="209" y="24"/>
      <point x="190" y="13"/>
    </contour>
  </outline>
</glyph>
<glyph name="b" format="1">
  <advance width="515"/>
  <unicode hex="0062"/>
  <outline>
    <contour>
      <point x="259" y="-14" type="curve" smooth="yes"/>
      <point x="390" y="-14"/>
      <point x="480" y="80"/>
      <point x="480" y="217" type="curve" smooth="yes"/>
      <point x="480" y="328"/>
      <point x="401" y="414"/>
      <point x="300" y="414" type="curve" smooth="yes"/>
      <point x="256" y="414"/>
      <point x="195" y="389"/>
      <point x="154" y="355" type="curve"/>
      <point x="147" y="356"/>
      <point x="145" y="362"/>
      <point x="145" y="388" type="curve" smooth="yes"/>
      <point x="145" y="593" type="line" smooth="yes"/>
      <point x="145" y="649"/>
      <point x="148" y="693"/>
      <point x="148" y="698" type="curve" smooth="yes"/>
      <point x="148" y="702"/>
      <point x="145" y="705"/>
      <point x="142" y="705" type="curve" smooth="yes"/>
      <point x="140" y="705"/>
      <point x="137" y="704"/>
      <point x="133" y="702" type="curve" smooth="yes"/>
      <point x="120" y="696"/>
      <point x="56" y="674"/>
      <point x="28" y="670" type="curve" smooth="yes"/>
      <point x="23" y="669"/>
      <point x="16" y="668"/>
      <point x="16" y="665" type="curve" smooth="yes"/>
      <point x="16" y="664"/>
      <point x="23" y="662"/>
      <point x="29" y="662" type="curve" smooth="yes"/>
      <point x="70" y="655"/>
      <point x="75" y="652"/>
      <point x="75" y="621" type="curve" smooth="yes"/>
      <point x="75" y="81" type="line" smooth="yes"/>
      <point x="75" y="56"/>
      <point x="68" y="21"/>
      <point x="68" y="9" type="curve" smooth="yes"/>
      <point x="68" y="2"/>
      <point x="70" y="-3"/>
      <point x="72" y="-3" type="curve" smooth="yes"/>
      <point x="73" y="-3"/>
      <point x="74" y="-1"/>
      <point x="75" y="2" type="curve" smooth="yes"/>
      <point x="77" y="8"/>
      <point x="81" y="15"/>
      <point x="90" y="15" type="curve" smooth="yes"/>
      <point x="98" y="15"/>
      <point x="133" y="7"/>
      <point x="165" y="-1" type="curve" smooth="yes"/>
      <point x="193" y="-8"/>
      <point x="227" y="-14"/>
    </contour>
    <contour>
      <point x="282" y="-6" type="curve" smooth="yes"/>
      <point x="205" y="-6"/>
      <point x="145" y="37"/>
      <point x="145" y="121" type="curve" smooth="yes"/>
      <point x="145" y="337" type="line"/>
      <point x="174" y="367"/>
      <point x="214" y="388"/>
      <point x="267" y="388" type="curve" smooth="yes"/>
      <point x="362" y="388"/>
      <point x="405" y="276"/>
      <point x="405" y="191" type="curve" smooth="yes"/>
      <point x="405" y="79"/>
      <point x="358" y="-6"/>
    </contour>
  </outline>
</glyph>
<glyph name="d" format="1">
  <advance width="506"/>
  <unicode hex="0064"/>
  <outline>
    <contour>
      <point x="357" y="-19" type="curve" smooth="yes"/>
      <point x="361" y="-19"/>
      <point x="362" y="-19"/>
      <point x="373" y="-13" type="curve" smooth="yes"/>
      <point x="420" y="7"/>
      <point x="453" y="16"/>
      <point x="490" y="21" type="curve" smooth="yes"/>
      <point x="497" y="21"/>
      <point x="504" y="23"/>
      <point x="504" y="27" type="curve" smooth="yes"/>
      <point x="504" y="30"/>
      <point x="499" y="30"/>
      <point x="486" y="29" type="curve" smooth="yes"/>
      <point x="469" y="28"/>
      <point x="450" y="29"/>
      <point x="443" y="29" type="curve" smooth="yes"/>
      <point x="427" y="29"/>
      <point x="422" y="40"/>
      <point x="422" y="70" type="curve" smooth="yes"/>
      <point x="422" y="562" type="line" smooth="yes"/>
      <point x="422" y="652"/>
      <point x="429" y="686"/>
      <point x="429" y="698" type="curve"/>
      <point x="428" y="702"/>
      <point x="426" y="704"/>
      <point x="422" y="704" type="curve" smooth="yes"/>
      <point x="419" y="704"/>
      <point x="414" y="703"/>
      <point x="409" y="701" type="curve" smooth="yes"/>
      <point x="390" y="693"/>
      <point x="359" y="686"/>
      <point x="301" y="670" type="curve" smooth="yes"/>
      <point x="295" y="668"/>
      <point x="293" y="667"/>
      <point x="293" y="666" type="curve" smooth="yes"/>
      <point x="293" y="664"/>
      <point x="296" y="663"/>
      <point x="302" y="662" type="curve" smooth="yes"/>
      <point x="340" y="661"/>
      <point x="352" y="657"/>
      <point x="352" y="626" type="curve" smooth="yes"/>
      <point x="352" y="424" type="line" smooth="yes"/>
      <point x="352" y="406"/>
      <point x="348" y="400"/>
      <point x="345" y="400" type="curve" smooth="yes"/>
      <point x="342" y="400"/>
      <point x="338" y="401"/>
      <point x="332" y="403" type="curve" smooth="yes"/>
      <point x="317" y="408"/>
      <point x="287" y="414"/>
      <point x="260" y="414" type="curve" smooth="yes"/>
      <point x="120" y="414"/>
      <point x="35" y="306"/>
      <point x="35" y="190" type="curve" smooth="yes"/>
      <point x="35" y="89"/>
      <point x="106" y="-14"/>
      <point x="220" y="-14" type="curve" smooth="yes"/>
      <point x="286" y="-14"/>
      <point x="331" y="26"/>
      <point x="351" y="57" type="curve"/>
      <point x="351" y="51" type="line" smooth="yes"/>
      <point x="351" y="34"/>
      <point x="346" y="4"/>
      <point x="346" y="-9" type="curve" smooth="yes"/>
      <point x="346" y="-12"/>
      <point x="354" y="-19"/>
    </contour>
    <contour>
      <point x="256" y="11" type="curve" smooth="yes"/>
      <point x="212" y="11"/>
      <point x="106" y="34"/>
      <point x="106" y="209" type="curve" smooth="yes"/>
      <point x="106" y="362"/>
      <point x="183" y="405"/>
      <point x="229" y="405" type="curve" smooth="yes"/>
      <point x="310" y="405"/>
      <point x="352" y="370"/>
      <point x="352" y="308" type="curve" smooth="yes"/>
      <point x="351" y="64" type="line"/>
      <point x="325" y="32"/>
      <point x="291" y="11"/>
    </contour>
  </outline>
</glyph>
<glyph name="f" format="1">
  <advance width="318"/>
  <unicode hex="0066"/>
  <outline>
    <contour>
      <point x="84" y="-3"/>
      <point x="92" y="2"/>
      <point x="127" y="2" type="curve" smooth="yes"/>
      <point x="162" y="2"/>
      <point x="189" y="-3"/>
      <point x="229" y="-3" type="curve" smooth="yes"/>
      <point x="242" y="-3"/>
      <point x="249" y="-2"/>
      <point x="249" y="0" type="curve" smooth="yes"/>
      <point x="249" y="4"/>
      <point x="240" y="5"/>
      <point x="226" y="5" type="curve" smooth="yes"/>
      <point x="172" y="9"/>
      <point x="160" y="13"/>
      <point x="160" y="34" type="curve" smooth="yes"/>
      <point x="160" y="385" type="line" smooth="yes"/>
      <point x="160" y="386"/>
      <point x="163" y="388"/>
      <point x="179" y="388" type="curve" smooth="yes"/>
      <point x="294" y="388" type="line" smooth="yes"/>
      <point x="297" y="388"/>
      <point x="301" y="388"/>
      <point x="303" y="389" type="curve" smooth="yes"/>
      <point x="307" y="391"/>
      <point x="309" y="393"/>
      <point x="309" y="395" type="curve" smooth="yes"/>
      <point x="309" y="396"/>
      <point x="303" y="400"/>
      <point x="296" y="400" type="curve" smooth="yes"/>
      <point x="171" y="400" type="line" smooth="yes"/>
      <point x="165" y="400"/>
      <point x="160" y="400"/>
      <point x="160" y="410" type="curve" smooth="yes"/>
      <point x="160" y="538" type="line" smooth="yes"/>
      <point x="160" y="627"/>
      <point x="215" y="686"/>
      <point x="262" y="686" type="curve" smooth="yes"/>
      <point x="301" y="686"/>
      <point x="324" y="668"/>
      <point x="352" y="629" type="curve" smooth="yes"/>
      <point x="361" y="616"/>
      <point x="374" y="606"/>
      <point x="386" y="606" type="curve" smooth="yes"/>
      <point x="404" y="606"/>
      <point x="420" y="619"/>
      <point x="420" y="646" type="curve" smooth="yes"/>
      <point x="420" y="681"/>
      <point x="384" y="706"/>
      <point x="310" y="706" type="curve" smooth="yes"/>
      <point x="225" y="706"/>
      <point x="90" y="640"/>
      <point x="90" y="419" type="curve" smooth="yes"/>
      <point x="90" y="406" type="line"/>
      <point x="70" y="403"/>
      <point x="55" y="401"/>
      <point x="31" y="398" type="curve" smooth="yes"/>
      <point x="29" y="397"/>
      <point x="24" y="397"/>
      <point x="24" y="396" type="curve" smooth="yes"/>
      <point x="24" y="394"/>
      <point x="34" y="388"/>
      <point x="38" y="388" type="curve"/>
      <point x="59" y="388"/>
      <point x="77" y="388"/>
      <point x="90" y="388" type="curve"/>
      <point x="90" y="34" type="line" smooth="yes"/>
      <point x="90" y="13"/>
      <point x="78" y="11"/>
      <point x="47" y="5" type="curve" smooth="yes"/>
      <point x="33" y="4"/>
      <point x="24" y="4"/>
      <point x="24" y="0" type="curve" smooth="yes"/>
      <point x="24" y="-2"/>
      <point x="31" y="-3"/>
      <point x="44" y="-3" type="curve" smooth="yes"/>
    </contour>
  </outline>
</glyph>
<glyph name="i" format="1">
  <advance width="245"/>
  <unicode hex="0069"/>
  <outline>
    <contour>
      <point x="44" y="-3" type="curve" smooth="yes"/>
      <point x="83" y="-3"/>
      <point x="90" y="2"/>
      <point x="125" y="2" type="curve" smooth="yes"/>
      <point x="160" y="2"/>
      <point x="168" y="-3"/>
      <point x="206" y="-3" type="curve" smooth="yes"/>
      <point x="219" y="-3"/>
      <point x="226" y="0"/>
      <point x="226" y="1" type="curve" smooth="yes"/>
      <point x="226" y="3"/>
      <point x="214" y="6"/>
      <point x="203" y="7" type="curve" smooth="yes"/>
      <point x="176" y="10"/>
      <point x="160" y="13"/>
      <point x="160" y="28" type="curve" smooth="yes"/>
      <point x="160" y="294" type="line" smooth="yes"/>
      <point x="160" y="339"/>
      <point x="169" y="413"/>
      <point x="169" y="429" type="curve" smooth="yes"/>
      <point x="169" y="432"/>
      <point x="167" y="434"/>
      <point x="163" y="434" type="curve" smooth="yes"/>
      <point x="159" y="434"/>
      <point x="154" y="431"/>
      <point x="149" y="426" type="curve" smooth="yes"/>
      <point x="132" y="409"/>
      <point x="103" y="381"/>
      <point x="44" y="366" type="curve" smooth="yes"/>
      <point x="38" y="364"/>
      <point x="35" y="364"/>
      <point x="35" y="362" type="curve" smooth="yes"/>
      <point x="35" y="359"/>
      <point x="38" y="357"/>
      <point x="45" y="356" type="curve" smooth="yes"/>
      <point x="79" y="352"/>
      <point x="90" y="329"/>
      <point x="90" y="304" type="curve" smooth="yes"/>
      <point x="90" y="28" type="line" smooth="yes"/>
      <point x="90" y="13"/>
      <point x="75" y="10"/>
      <point x="47" y="7" type="curve" smooth="yes"/>
      <point x="36" y="6"/>
      <point x="24" y="3"/>
      <point x="24" y="1" type="curve" smooth="yes"/>
      <point x="24" y="0"/>
      <point x="32" y="-3"/>
    </contour>
    <contour>
      <point x="124" y="516" type="curve" smooth="yes"/>
      <point x="153" y="516"/>
      <point x="175" y="538"/>
      <point x="175" y="566" type="curve" smooth="yes"/>
      <point x="175" y="595"/>
      <point x="153" y="617"/>
      <point x="124" y="617" type="curve" smooth="yes"/>
      <point x="96" y="617"/>
      <point x="74" y="595"/>
      <point x="74" y="566" type="curve" smooth="yes"/>
      <point x="74" y="538"/>
      <point x="96" y="516"/>
    </contour>
  </outline>
</glyph>
<glyph name="j" format="1">
  <advance width="226"/>
  <unicode hex="006A"/>
  <outline>
    <contour>
      <point x="-9" y="-287" type="curve" smooth="yes"/>
      <point x="41" y="-287"/>
      <point x="104" y="-220"/>
      <point x="129" y="-152" type="curve" smooth="yes"/>
      <point x="158" y="-72"/>
      <point x="159" y="29"/>
      <point x="159" y="91" type="curve" smooth="yes"/>
      <point x="159" y="275" type="line" smooth="yes"/>
      <point x="159" y="320"/>
      <point x="162" y="388"/>
      <point x="166" y="429" type="curve"/>
      <point x="166" y="432"/>
      <point x="163" y="434"/>
      <point x="159" y="434" type="curve" smooth="yes"/>
      <point x="157" y="434"/>
      <point x="151" y="427"/>
      <point x="145" y="422" type="curve" smooth="yes"/>
      <point x="128" y="408"/>
      <point x="108" y="384"/>
      <point x="42" y="365" type="curve" smooth="yes"/>
      <point x="38" y="364"/>
      <point x="35" y="363"/>
      <point x="35" y="361" type="curve" smooth="yes"/>
      <point x="35" y="359"/>
      <point x="38" y="357"/>
      <point x="43" y="357" type="curve" smooth="yes"/>
      <point x="77" y="357"/>
      <point x="89" y="331"/>
      <point x="89" y="307" type="curve" smooth="yes"/>
      <point x="89" y="23" type="line" smooth="yes"/>
      <point x="89" y="-46"/>
      <point x="86" y="-182"/>
      <point x="57" y="-243" type="curve" smooth="yes"/>
      <point x="38" y="-283"/>
      <point x="15" y="-231"/>
      <point x="-26" y="-241" type="curve"/>
      <point x="-30" y="-242"/>
      <point x="-45" y="-256"/>
      <point x="-45" y="-270" type="curve" smooth="yes"/>
      <point x="-45" y="-282"/>
      <point x="-21" y="-287"/>
    </contour>
    <contour>
      <point x="116" y="516" type="curve" smooth="yes"/>
      <point x="145" y="516"/>
      <point x="167" y="538"/>
      <point x="167" y="566" type="curve" smooth="yes"/>
      <point x="167" y="595"/>
      <point x="145" y="617"/>
      <point x="116" y="617" type="curve" smooth="yes"/>
      <point x="88" y="617"/>
      <point x="66" y="595"/>
      <point x="66" y="566" type="curve" smooth="yes"/>
      <point x="66" y="538"/>
      <point x="88" y="516"/>
    </contour>
  </outline>
</glyph>
<glyph name="k" format="1">
  <advance width="469"/>
  <unicode hex="006B"/>
  <outline>
    <contour>
      <point x="42" y="-3" type="curve" smooth="yes"/>
      <point x="81" y="-3"/>
      <point x="85" y="2"/>
      <point x="120" y="2" type="curve" smooth="yes"/>
      <point x="155" y="2"/>
      <point x="151" y="-3"/>
      <point x="190" y="-3" type="curve" smooth="yes"/>
      <point x="195" y="-3"/>
      <point x="213" y="-3"/>
      <point x="213" y="1" type="curve" smooth="yes"/>
      <point x="213" y="4"/>
      <point x="201" y="5"/>
      <point x="190" y="6" type="curve" smooth="yes"/>
      <point x="165" y="8"/>
      <point x="155" y="8"/>
      <point x="155" y="37" type="curve" smooth="yes"/>
      <point x="154" y="88"/>
      <point x="154" y="112"/>
      <point x="154" y="135" type="curve" smooth="yes"/>
      <point x="154" y="158"/>
      <point x="154" y="180"/>
      <point x="155" y="199" type="curve"/>
      <point x="155" y="204"/>
      <point x="157" y="206"/>
      <point x="160" y="206" type="curve" smooth="yes"/>
      <point x="164" y="206"/>
      <point x="166" y="204"/>
      <point x="170" y="199" type="curve" smooth="yes"/>
      <point x="319" y="34" type="line" smooth="yes"/>
      <point x="324" y="28"/>
      <point x="327" y="23"/>
      <point x="327" y="19" type="curve" smooth="yes"/>
      <point x="327" y="11"/>
      <point x="311" y="7"/>
      <point x="270" y="7" type="curve" smooth="yes"/>
      <point x="261" y="7"/>
      <point x="254" y="4"/>
      <point x="254" y="2" type="curve" smooth="yes"/>
      <point x="254" y="1"/>
      <point x="258" y="0"/>
      <point x="272" y="0" type="curve" smooth="yes"/>
      <point x="340" y="0"/>
      <point x="407" y="-3"/>
      <point x="459" y="-3" type="curve" smooth="yes"/>
      <point x="471" y="-3"/>
      <point x="479" y="-2"/>
      <point x="479" y="1" type="curve" smooth="yes"/>
      <point x="479" y="2"/>
      <point x="474" y="4"/>
      <point x="465" y="4" type="curve" smooth="yes"/>
      <point x="448" y="4"/>
      <point x="437" y="12"/>
      <point x="404" y="42" type="curve" smooth="yes"/>
      <point x="383" y="61"/>
      <point x="274" y="174"/>
      <point x="219" y="231" type="curve" smooth="yes"/>
      <point x="217" y="233"/>
      <point x="216" y="236"/>
      <point x="216" y="238" type="curve" smooth="yes"/>
      <point x="216" y="241"/>
      <point x="218" y="244"/>
      <point x="222" y="248" type="curve" smooth="yes"/>
      <point x="267" y="293"/>
      <point x="331" y="343"/>
      <point x="357" y="361" type="curve" smooth="yes"/>
      <point x="381" y="378"/>
      <point x="399" y="386"/>
      <point x="424" y="391" type="curve" smooth="yes"/>
      <point x="438" y="394"/>
      <point x="449" y="396"/>
      <point x="449" y="399" type="curve" smooth="yes"/>
      <point x="449" y="403"/>
      <point x="444" y="403"/>
      <point x="435" y="403" type="curve" smooth="yes"/>
      <point x="413" y="403"/>
      <point x="375" y="400"/>
      <point x="344" y="400" type="curve" smooth="yes"/>
      <point x="295" y="400" type="line" smooth="yes"/>
      <point x="281" y="400"/>
      <point x="273" y="398"/>
      <point x="273" y="396" type="curve" smooth="yes"/>
      <point x="273" y="395"/>
      <point x="276" y="393"/>
      <point x="285" y="393" type="curve" smooth="yes"/>
      <point x="319" y="393"/>
      <point x="332" y="386"/>
      <point x="332" y="373" type="curve" smooth="yes"/>
      <point x="332" y="368"/>
      <point x="330" y="363"/>
      <point x="325" y="358" type="curve" smooth="yes"/>
      <point x="282" y="317"/>
      <point x="239" y="276"/>
      <point x="196" y="235" type="curve"/>
      <point x="181" y="222"/>
      <point x="168" y="215"/>
      <point x="160" y="215" type="curve" smooth="yes"/>
      <point x="157" y="215"/>
      <point x="155" y="218"/>
      <point x="155" y="224" type="curve" smooth="yes"/>
      <point x="155" y="562" type="line" smooth="yes"/>
      <point x="155" y="647"/>
      <point x="164" y="682"/>
      <point x="164" y="696" type="curve" smooth="yes"/>
      <point x="164" y="702"/>
      <point x="163" y="705"/>
      <point x="159" y="705" type="curve" smooth="yes"/>
      <point x="156" y="705"/>
      <point x="146" y="702"/>
      <point x="141" y="699" type="curve" smooth="yes"/>
      <point x="114" y="683"/>
      <point x="67" y="676"/>
      <point x="39" y="670" type="curve" smooth="yes"/>
      <point x="34" y="669"/>
      <point x="31" y="669"/>
      <point x="31" y="665" type="curve" smooth="yes"/>
      <point x="31" y="662"/>
      <point x="34" y="662"/>
      <point x="40" y="662" type="curve" smooth="yes"/>
      <point x="91" y="658"/>
      <point x="85" y="650"/>
      <point x="85" y="611" type="curve" smooth="yes"/>
      <point x="85" y="31" type="line" smooth="yes"/>
      <point x="85" y="11"/>
      <point x="77" y="9"/>
      <point x="42" y="6" type="curve" smooth="yes"/>
      <point x="31" y="5"/>
      <point x="19" y="4"/>
      <point x="19" y="1" type="curve" smooth="yes"/>
      <point x="19" y="-2"/>
      <point x="27" y="-3"/>
    </contour>
  </outline>
</glyph>
<glyph name="l" format="1">
  <advance width="240"/>
  <unicode hex="006C"/>
  <outline>
    <contour>
      <point x="39" y="-3" type="curve" smooth="yes"/>
      <point x="78" y="-3"/>
      <point x="85" y="2"/>
      <point x="120" y="2" type="curve" smooth="yes"/>
      <point x="155" y="2"/>
      <point x="162" y="-3"/>
      <point x="201" y="-3" type="curve" smooth="yes"/>
      <point x="208" y="-3"/>
      <point x="221" y="-3"/>
      <point x="221" y="1" type="curve" smooth="yes"/>
      <point x="221" y="4"/>
      <point x="209" y="6"/>
      <point x="198" y="8" type="curve" smooth="yes"/>
      <point x="178" y="10"/>
      <point x="155" y="11"/>
      <point x="155" y="31" type="curve" smooth="yes"/>
      <point x="155" y="562" type="line" smooth="yes"/>
      <point x="155" y="652"/>
      <point x="162" y="686"/>
      <point x="162" y="698" type="curve" smooth="yes"/>
      <point x="162" y="701"/>
      <point x="160" y="705"/>
      <point x="157" y="705" type="curve" smooth="yes"/>
      <point x="155" y="705"/>
      <point x="153" y="704"/>
      <point x="151" y="703" type="curve" smooth="yes"/>
      <point x="119" y="677"/>
      <point x="89" y="664"/>
      <point x="42" y="659" type="curve" smooth="yes"/>
      <point x="34" y="658"/>
      <point x="31" y="656"/>
      <point x="31" y="653" type="curve" smooth="yes"/>
      <point x="31" y="649"/>
      <point x="34" y="649"/>
      <point x="45" y="647" type="curve" smooth="yes"/>
      <point x="76" y="642"/>
      <point x="85" y="626"/>
      <point x="85" y="599" type="curve" smooth="yes"/>
      <point x="85" y="30" type="line" smooth="yes"/>
      <point x="85" y="11"/>
      <point x="62" y="10"/>
      <point x="42" y="8" type="curve"/>
      <point x="31" y="6"/>
      <point x="19" y="4"/>
      <point x="19" y="1" type="curve" smooth="yes"/>
      <point x="19" y="-3"/>
      <point x="32" y="-3"/>
    </contour>
  </outline>
</glyph>
<glyph name="m" format="1">
  <advance width="778"/>
  <unicode hex="006D"/>
  <outline>
    <contour>
      <point x="44" y="-3" type="curve" smooth="yes"/>
      <point x="84" y="-3"/>
      <point x="90" y="2"/>
      <point x="125" y="2" type="curve" smooth="yes"/>
      <point x="160" y="2"/>
      <point x="166" y="-3"/>
      <point x="206" y="-3" type="curve" smooth="yes"/>
      <point x="218" y="-3"/>
      <point x="226" y="-2"/>
      <point x="226" y="0" type="curve" smooth="yes"/>
      <point x="226" y="3"/>
      <point x="214" y="4"/>
      <point x="203" y="5" type="curve" smooth="yes"/>
      <point x="183" y="7"/>
      <point x="160" y="6"/>
      <point x="160" y="19" type="curve" smooth="yes"/>
      <point x="160" y="268" type="line" smooth="yes"/>
      <point x="160" y="311"/>
      <point x="168" y="338"/>
      <point x="187" y="355" type="curve" smooth="yes"/>
      <point x="212" y="380"/>
      <point x="240" y="392"/>
      <point x="274" y="392" type="curve" smooth="yes"/>
      <point x="317" y="392"/>
      <point x="354" y="333"/>
      <point x="354" y="273" type="curve" smooth="yes"/>
      <point x="354" y="19" type="line" smooth="yes"/>
      <point x="354" y="6"/>
      <point x="330" y="7"/>
      <point x="310" y="5" type="curve" smooth="yes"/>
      <point x="299" y="4"/>
      <point x="287" y="3"/>
      <point x="287" y="0" type="curve" smooth="yes"/>
      <point x="287" y="-2"/>
      <point x="296" y="-3"/>
      <point x="307" y="-3" type="curve" smooth="yes"/>
      <point x="347" y="-3"/>
      <point x="355" y="2"/>
      <point x="390" y="2" type="curve" smooth="yes"/>
      <point x="425" y="2"/>
      <point x="432" y="-3"/>
      <point x="472" y="-3" type="curve" smooth="yes"/>
      <point x="485" y="-3"/>
      <point x="492" y="-2"/>
      <point x="492" y="0" type="curve" smooth="yes"/>
      <point x="492" y="3"/>
      <point x="482" y="4"/>
      <point x="469" y="5" type="curve" smooth="yes"/>
      <point x="449" y="6"/>
      <point x="424" y="6"/>
      <point x="424" y="19" type="curve" smooth="yes"/>
      <point x="424" y="268" type="line" smooth="yes"/>
      <point x="424" y="312"/>
      <point x="434" y="338"/>
      <point x="452" y="355" type="curve" smooth="yes"/>
      <point x="477" y="380"/>
      <point x="505" y="392"/>
      <point x="539" y="392" type="curve" smooth="yes"/>
      <point x="582" y="392"/>
      <point x="619" y="333"/>
      <point x="619" y="273" type="curve" smooth="yes"/>
      <point x="619" y="19" type="line" smooth="yes"/>
      <point x="619" y="6"/>
      <point x="597" y="6"/>
      <point x="576" y="5" type="curve" smooth="yes"/>
      <point x="563" y="4"/>
      <point x="553" y="3"/>
      <point x="553" y="0" type="curve" smooth="yes"/>
      <point x="553" y="-2"/>
      <point x="561" y="-3"/>
      <point x="573" y="-3" type="curve" smooth="yes"/>
      <point x="613" y="-3"/>
      <point x="621" y="2"/>
      <point x="656" y="2" type="curve" smooth="yes"/>
      <point x="691" y="2"/>
      <point x="695" y="-3"/>
      <point x="735" y="-3" type="curve" smooth="yes"/>
      <point x="750" y="-3"/>
      <point x="755" y="-2"/>
      <point x="755" y="0" type="curve" smooth="yes"/>
      <point x="755" y="3"/>
      <point x="745" y="4"/>
      <point x="732" y="5" type="curve" smooth="yes"/>
      <point x="712" y="7"/>
      <point x="689" y="6"/>
      <point x="689" y="19" type="curve" smooth="yes"/>
      <point x="689" y="275" type="line" smooth="yes"/>
      <point x="689" y="345"/>
      <point x="654" y="414"/>
      <point x="589" y="414" type="curve" smooth="yes"/>
      <point x="524" y="414"/>
      <point x="469" y="383"/>
      <point x="426" y="345" type="curve"/>
      <point x="423" y="345" type="line"/>
      <point x="402" y="396"/>
      <point x="371" y="414"/>
      <point x="323" y="414" type="curve" smooth="yes"/>
      <point x="246" y="414"/>
      <point x="197" y="376"/>
      <point x="167" y="347" type="curve"/>
      <point x="165" y="347" type="line"/>
      <point x="164" y="348"/>
      <point x="163" y="353"/>
      <point x="163" y="359" type="curve" smooth="yes"/>
      <point x="163" y="378"/>
      <point x="168" y="414"/>
      <point x="168" y="423" type="curve" smooth="yes"/>
      <point x="168" y="427"/>
      <point x="167" y="430"/>
      <point x="165" y="430" type="curve" smooth="yes"/>
      <point x="163" y="430"/>
      <point x="161" y="427"/>
      <point x="159" y="425" type="curve" smooth="yes"/>
      <point x="132" y="393"/>
      <point x="110" y="376"/>
      <point x="51" y="365" type="curve" smooth="yes"/>
      <point x="46" y="364"/>
      <point x="43" y="364"/>
      <point x="43" y="362" type="curve" smooth="yes"/>
      <point x="43" y="357"/>
      <point x="47" y="357"/>
      <point x="53" y="356" type="curve" smooth="yes"/>
      <point x="83" y="353"/>
      <point x="90" y="338"/>
      <point x="90" y="302" type="curve" smooth="yes"/>
      <point x="90" y="19" type="line" smooth="yes"/>
      <point x="90" y="6"/>
      <point x="66" y="7"/>
      <point x="47" y="5" type="curve" smooth="yes"/>
      <point x="34" y="4"/>
      <point x="24" y="3"/>
      <point x="24" y="0" type="curve" smooth="yes"/>
      <point x="24" y="-2"/>
      <point x="33" y="-3"/>
    </contour>
  </outline>
</glyph>
<glyph name="o" format="1">
  <advance width="495"/>
  <unicode hex="006F"/>
  <outline>
    <contour>
      <point x="234" y="-14" type="curve" smooth="yes"/>
      <point x="367" y="-14"/>
      <point x="460" y="79"/>
      <point x="460" y="213" type="curve" smooth="yes"/>
      <point x="460" y="324"/>
      <point x="367" y="414"/>
      <point x="254" y="414" type="curve" smooth="yes"/>
      <point x="139" y="414"/>
      <point x="35" y="306"/>
      <point x="35" y="187" type="curve" smooth="yes"/>
      <point x="35" y="72"/>
      <point x="120" y="-14"/>
    </contour>
    <contour>
      <point x="255" y="-5" type="curve" smooth="yes"/>
      <point x="180" y="-5"/>
      <point x="117" y="93"/>
      <point x="117" y="211" type="curve" smooth="yes"/>
      <point x="117" y="341"/>
      <point x="156" y="404"/>
      <point x="237" y="404" type="curve" smooth="yes"/>
      <point x="314" y="404"/>
      <point x="378" y="306"/>
      <point x="378" y="188" type="curve" smooth="yes"/>
      <point x="378" y="53"/>
      <point x="341" y="-5"/>
    </contour>
  </outline>
</glyph>
<glyph name="p" format="1">
  <advance width="519"/>
  <unicode hex="0070"/>
  <outline>
    <contour>
      <point x="40" y="-285" type="curve" smooth="yes"/>
      <point x="79" y="-285"/>
      <point x="85" y="-283"/>
      <point x="120" y="-283" type="curve" smooth="yes"/>
      <point x="155" y="-283"/>
      <point x="175" y="-285"/>
      <point x="214" y="-285" type="curve" smooth="yes"/>
      <point x="222" y="-285"/>
      <point x="236" y="-285"/>
      <point x="236" y="-282" type="curve" smooth="yes"/>
      <point x="236" y="-279"/>
      <point x="224" y="-277"/>
      <point x="213" y="-275" type="curve"/>
      <point x="193" y="-274"/>
      <point x="155" y="-273"/>
      <point x="155" y="-263" type="curve" smooth="yes"/>
      <point x="155" y="-33" type="line" smooth="yes"/>
      <point x="155" y="-27"/>
      <point x="156" y="18"/>
      <point x="159" y="18" type="curve"/>
      <point x="179" y="0"/>
      <point x="231" y="-14"/>
      <point x="259" y="-14" type="curve" smooth="yes"/>
      <point x="385" y="-14"/>
      <point x="484" y="106"/>
      <point x="484" y="225" type="curve" smooth="yes"/>
      <point x="484" y="319"/>
      <point x="423" y="413"/>
      <point x="320" y="413" type="curve" smooth="yes"/>
      <point x="257" y="413"/>
      <point x="177" y="367"/>
      <point x="158" y="348" type="curve"/>
      <point x="157" y="349"/>
      <point x="157" y="353"/>
      <point x="157" y="357" type="curve" smooth="yes"/>
      <point x="157" y="373"/>
      <point x="162" y="405"/>
      <point x="162" y="417" type="curve" smooth="yes"/>
      <point x="162" y="421"/>
      <point x="159" y="426"/>
      <point x="156" y="426" type="curve" smooth="yes"/>
      <point x="155" y="426"/>
      <point x="155" y="425"/>
      <point x="154" y="425" type="curve"/>
      <point x="122" y="412"/>
      <point x="89" y="397"/>
      <point x="38" y="385" type="curve" smooth="yes"/>
      <point x="34" y="384"/>
      <point x="31" y="383"/>
      <point x="31" y="379" type="curve" smooth="yes"/>
      <point x="31" y="377"/>
      <point x="34" y="375"/>
      <point x="39" y="375" type="curve" smooth="yes"/>
      <point x="77" y="372"/>
      <point x="85" y="354"/>
      <point x="85" y="324" type="curve" smooth="yes"/>
      <point x="85" y="-263" type="line" smooth="yes"/>
      <point x="85" y="-273"/>
      <point x="62" y="-274"/>
      <point x="42" y="-275" type="curve"/>
      <point x="31" y="-277"/>
      <point x="19" y="-279"/>
      <point x="19" y="-282" type="curve" smooth="yes"/>
      <point x="19" y="-285"/>
      <point x="33" y="-285"/>
    </contour>
    <contour>
      <point x="274" y="-2" type="curve" smooth="yes"/>
      <point x="208" y="-2"/>
      <point x="155" y="42"/>
      <point x="155" y="162" type="curve" smooth="yes"/>
      <point x="155" y="188"/>
      <point x="158" y="265"/>
      <point x="158" y="328" type="curve" smooth="yes"/>
      <point x="158" y="344"/>
      <point x="220" y="386"/>
      <point x="268" y="386" type="curve" smooth="yes"/>
      <point x="338" y="386"/>
      <point x="404" y="326"/>
      <point x="404" y="192" type="curve" smooth="yes"/>
      <point x="404" y="54"/>
      <point x="355" y="-2"/>
    </contour>
  </outline>
</glyph>
<glyph name="q" format="1">
  <advance width="522"/>
  <unicode hex="0071"/>
  <outline>
    <contour>
      <point x="331" y="-285" type="curve" smooth="yes"/>
      <point x="371" y="-285"/>
      <point x="377" y="-280"/>
      <point x="412" y="-280" type="curve" smooth="yes"/>
      <point x="448" y="-280"/>
      <point x="462" y="-285"/>
      <point x="502" y="-285" type="curve" smooth="yes"/>
      <point x="510" y="-285"/>
      <point x="522" y="-285"/>
      <point x="522" y="-283" type="curve" smooth="yes"/>
      <point x="522" y="-280"/>
      <point x="510" y="-279"/>
      <point x="499" y="-278" type="curve" smooth="yes"/>
      <point x="479" y="-276"/>
      <point x="447" y="-276"/>
      <point x="447" y="-264" type="curve" smooth="yes"/>
      <point x="447" y="295" type="line" smooth="yes"/>
      <point x="447" y="351"/>
      <point x="459" y="399"/>
      <point x="459" y="412" type="curve" smooth="yes"/>
      <point x="459" y="417"/>
      <point x="457" y="420"/>
      <point x="452" y="420" type="curve" smooth="yes"/>
      <point x="449" y="420"/>
      <point x="446" y="417"/>
      <point x="443" y="411" type="curve" smooth="yes"/>
      <point x="438" y="401"/>
      <point x="431" y="391"/>
      <point x="418" y="391" type="curve" smooth="yes"/>
      <point x="395" y="391"/>
      <point x="350" y="413"/>
      <point x="282" y="413" type="curve" smooth="yes"/>
      <point x="135" y="413"/>
      <point x="35" y="319"/>
      <point x="35" y="178" type="curve" smooth="yes"/>
      <point x="35" y="54"/>
      <point x="131" y="-14"/>
      <point x="235" y="-14" type="curve" smooth="yes"/>
      <point x="288" y="-14"/>
      <point x="345" y="26"/>
      <point x="362" y="41" type="curve" smooth="yes"/>
      <point x="365" y="44"/>
      <point x="368" y="43"/>
      <point x="371" y="43" type="curve" smooth="yes"/>
      <point x="375" y="43"/>
      <point x="377" y="36"/>
      <point x="377" y="13" type="curve" smooth="yes"/>
      <point x="377" y="-266" type="line" smooth="yes"/>
      <point x="377" y="-276"/>
      <point x="354" y="-276"/>
      <point x="334" y="-278" type="curve" smooth="yes"/>
      <point x="323" y="-279"/>
      <point x="311" y="-280"/>
      <point x="311" y="-283" type="curve" smooth="yes"/>
      <point x="311" y="-285"/>
      <point x="324" y="-285"/>
    </contour>
    <contour>
      <point x="272" y="15" type="curve" smooth="yes"/>
      <point x="212" y="15"/>
      <point x="117" y="52"/>
      <point x="117" y="205" type="curve" smooth="yes"/>
      <point x="117" y="336"/>
      <point x="185" y="407"/>
      <point x="257" y="407" type="curve" smooth="yes"/>
      <point x="333" y="407"/>
      <point x="374" y="373"/>
      <point x="377" y="287" type="curve" smooth="yes"/>
      <point x="378" y="256"/>
      <point x="378" y="104"/>
      <point x="378" y="61" type="curve"/>
      <point x="361" y="39"/>
      <point x="316" y="15"/>
    </contour>
  </outline>
</glyph>
<glyph name="t" format="1">
  <advance width="314"/>
  <unicode hex="0074"/>
  <outline>
    <contour>
      <point x="189" y="-14" type="curve" smooth="yes"/>
      <point x="250" y="-14"/>
      <point x="306" y="41"/>
      <point x="306" y="49" type="curve" smooth="yes"/>
      <point x="306" y="52"/>
      <point x="306" y="53"/>
      <point x="304" y="53" type="curve" smooth="yes"/>
      <point x="302" y="53"/>
      <point x="300" y="51"/>
      <point x="299" y="50" type="curve" smooth="yes"/>
      <point x="266" y="22"/>
      <point x="248" y="11"/>
      <point x="226" y="11" type="curve" smooth="yes"/>
      <point x="184" y="11"/>
      <point x="155" y="46"/>
      <point x="155" y="105" type="curve" smooth="yes"/>
      <point x="155" y="387" type="line" smooth="yes"/>
      <point x="155" y="392"/>
      <point x="161" y="392"/>
      <point x="195" y="392" type="curve" smooth="yes"/>
      <point x="294" y="392" type="line" smooth="yes"/>
      <point x="299" y="392"/>
      <point x="304" y="394"/>
      <point x="304" y="396" type="curve" smooth="yes"/>
      <point x="304" y="398"/>
      <point x="299" y="400"/>
      <point x="294" y="400" type="curve" smooth="yes"/>
      <point x="180" y="400" type="line" smooth="yes"/>
      <point x="163" y="400"/>
      <point x="154" y="404"/>
      <point x="156" y="419" type="curve" smooth="yes"/>
      <point x="161" y="464" type="line" smooth="yes"/>
      <point x="162" y="473"/>
      <point x="161" y="475"/>
      <point x="155" y="475" type="curve" smooth="yes"/>
      <point x="152" y="475"/>
      <point x="147" y="471"/>
      <point x="143" y="464" type="curve" smooth="yes"/>
      <point x="120" y="426"/>
      <point x="94" y="413"/>
      <point x="52" y="408" type="curve" smooth="yes"/>
      <point x="40" y="407"/>
      <point x="35" y="402"/>
      <point x="35" y="398" type="curve" smooth="yes"/>
      <point x="35" y="392"/>
      <point x="40" y="392"/>
      <point x="47" y="392" type="curve" smooth="yes"/>
      <point x="53" y="392" type="line"/>
      <point x="79" y="392"/>
      <point x="85" y="389"/>
      <point x="85" y="382" type="curve" smooth="yes"/>
      <point x="85" y="105" type="line" smooth="yes"/>
      <point x="85" y="26"/>
      <point x="124" y="-14"/>
    </contour>
  </outline>
</glyph>
<glyph name="u" format="1">
  <advance width="527"/>
  <unicode hex="0075"/>
  <outline>
    <contour>
      <point x="366" y="-19" type="curve" smooth="yes"/>
      <point x="372" y="-19"/>
      <point x="382" y="-15"/>
      <point x="386" y="-13" type="curve"/>
      <point x="415" y="-1"/>
      <point x="451" y="15"/>
      <point x="503" y="23" type="curve" smooth="yes"/>
      <point x="511" y="24"/>
      <point x="517" y="24"/>
      <point x="517" y="26" type="curve" smooth="yes"/>
      <point x="517" y="28"/>
      <point x="509" y="28"/>
      <point x="502" y="28" type="curve" smooth="yes"/>
      <point x="492" y="28"/>
      <point x="466" y="27"/>
      <point x="456" y="27" type="curve" smooth="yes"/>
      <point x="442" y="27"/>
      <point x="438" y="40"/>
      <point x="438" y="68" type="curve" smooth="yes"/>
      <point x="438" y="326" type="line" smooth="yes"/>
      <point x="438" y="342"/>
      <point x="443" y="388"/>
      <point x="445" y="395" type="curve" smooth="yes"/>
      <point x="446" y="399"/>
      <point x="447" y="402"/>
      <point x="447" y="404" type="curve" smooth="yes"/>
      <point x="447" y="411"/>
      <point x="441" y="415"/>
      <point x="434" y="415" type="curve" smooth="yes"/>
      <point x="431" y="415"/>
      <point x="427" y="414"/>
      <point x="424" y="413" type="curve"/>
      <point x="388" y="403"/>
      <point x="362" y="398"/>
      <point x="301" y="398" type="curve" smooth="yes"/>
      <point x="290" y="398"/>
      <point x="280" y="397"/>
      <point x="280" y="395" type="curve" smooth="yes"/>
      <point x="280" y="392"/>
      <point x="289" y="392"/>
      <point x="301" y="392" type="curve" smooth="yes"/>
      <point x="360" y="392"/>
      <point x="368" y="388"/>
      <point x="368" y="356" type="curve" smooth="yes"/>
      <point x="368" y="118" type="line" smooth="yes"/>
      <point x="368" y="90"/>
      <point x="352" y="68"/>
      <point x="328" y="51" type="curve" smooth="yes"/>
      <point x="311" y="39"/>
      <point x="281" y="32"/>
      <point x="239" y="32" type="curve" smooth="yes"/>
      <point x="197" y="32"/>
      <point x="155" y="71"/>
      <point x="155" y="128" type="curve" smooth="yes"/>
      <point x="155" y="323" type="line" smooth="yes"/>
      <point x="155" y="353"/>
      <point x="157" y="369"/>
      <point x="161" y="400" type="curve" smooth="yes"/>
      <point x="162" y="411"/>
      <point x="157" y="414"/>
      <point x="151" y="414" type="curve" smooth="yes"/>
      <point x="148" y="414"/>
      <point x="147" y="414"/>
      <point x="143" y="413" type="curve" smooth="yes"/>
      <point x="106" y="404"/>
      <point x="89" y="400"/>
      <point x="44" y="399" type="curve" smooth="yes"/>
      <point x="36" y="399"/>
      <point x="29" y="398"/>
      <point x="29" y="396" type="curve" smooth="yes"/>
      <point x="29" y="394"/>
      <point x="35" y="393"/>
      <point x="42" y="392" type="curve" smooth="yes"/>
      <point x="81" y="389"/>
      <point x="85" y="378"/>
      <point x="85" y="342" type="curve" smooth="yes"/>
      <point x="85" y="105" type="line" smooth="yes"/>
      <point x="85" y="27"/>
      <point x="134" y="-14"/>
      <point x="199" y="-14" type="curve" smooth="yes"/>
      <point x="261" y="-14"/>
      <point x="312" y="12"/>
      <point x="364" y="77" type="curve"/>
      <point x="364" y="55"/>
      <point x="364" y="53"/>
      <point x="364" y="51" type="curve" smooth="yes"/>
      <point x="364" y="34"/>
      <point x="359" y="2"/>
      <point x="359" y="-11" type="curve" smooth="yes"/>
      <point x="359" y="-16"/>
      <point x="361" y="-19"/>
    </contour>
  </outline>
</glyph>
<glyph name="w" format="1">
  <advance width="685"/>
  <unicode hex="0077"/>
  <outline>
    <contour>
      <point x="226" y="-23" type="curve" smooth="yes"/>
      <point x="229" y="-23"/>
      <point x="232" y="-20"/>
      <point x="234" y="-16" type="curve"/>
      <point x="329" y="274" type="line" smooth="yes"/>
      <point x="332" y="282"/>
      <point x="334" y="285"/>
      <point x="336" y="285" type="curve" smooth="yes"/>
      <point x="338" y="285"/>
      <point x="340" y="281"/>
      <point x="342" y="276" type="curve" smooth="yes"/>
      <point x="460" y="-16" type="line"/>
      <point x="462" y="-20"/>
      <point x="465" y="-23"/>
      <point x="468" y="-23" type="curve" smooth="yes"/>
      <point x="472" y="-23"/>
      <point x="475" y="-20"/>
      <point x="477" y="-16" type="curve"/>
      <point x="605" y="324" type="line" smooth="yes"/>
      <point x="627" y="384"/>
      <point x="644" y="398"/>
      <point x="670" y="398" type="curve" smooth="yes"/>
      <point x="682" y="398"/>
      <point x="690" y="400"/>
      <point x="690" y="402" type="curve" smooth="yes"/>
      <point x="690" y="405"/>
      <point x="678" y="405"/>
      <point x="670" y="405" type="curve" smooth="yes"/>
      <point x="648" y="405"/>
      <point x="649" y="404"/>
      <point x="612" y="404" type="curve" smooth="yes"/>
      <point x="576" y="404"/>
      <point x="567" y="405"/>
      <point x="538" y="405" type="curve" smooth="yes"/>
      <point x="531" y="405"/>
      <point x="518" y="405"/>
      <point x="518" y="402" type="curve" smooth="yes"/>
      <point x="518" y="400"/>
      <point x="532" y="398"/>
      <point x="545" y="398" type="curve" smooth="yes"/>
      <point x="582" y="398"/>
      <point x="602" y="382"/>
      <point x="602" y="358" type="curve" smooth="yes"/>
      <point x="602" y="350"/>
      <point x="600" y="341"/>
      <point x="596" y="330" type="curve" smooth="yes"/>
      <point x="506" y="83" type="line" smooth="yes"/>
      <point x="503" y="76"/>
      <point x="501" y="73"/>
      <point x="498" y="73" type="curve" smooth="yes"/>
      <point x="496" y="73"/>
      <point x="493" y="77"/>
      <point x="490" y="84" type="curve" smooth="yes"/>
      <point x="401" y="312" type="line" smooth="yes"/>
      <point x="396" y="325"/>
      <point x="392" y="339"/>
      <point x="392" y="352" type="curve" smooth="yes"/>
      <point x="393" y="372"/>
      <point x="403" y="388"/>
      <point x="428" y="395" type="curve" smooth="yes"/>
      <point x="438" y="398"/>
      <point x="451" y="398"/>
      <point x="451" y="402" type="curve" smooth="yes"/>
      <point x="451" y="405"/>
      <point x="438" y="405"/>
      <point x="431" y="405" type="curve" smooth="yes"/>
      <point x="409" y="405"/>
      <point x="384" y="403"/>
      <point x="347" y="403" type="curve" smooth="yes"/>
      <point x="310" y="403"/>
      <point x="290" y="405"/>
      <point x="272" y="405" type="curve" smooth="yes"/>
      <point x="264" y="405"/>
      <point x="252" y="405"/>
      <point x="252" y="402" type="curve" smooth="yes"/>
      <point x="252" y="398"/>
      <point x="265" y="396"/>
      <point x="275" y="395" type="curve" smooth="yes"/>
      <point x="314" y="391"/>
      <point x="328" y="362"/>
      <point x="328" y="328" type="curve" smooth="yes"/>
      <point x="328" y="310"/>
      <point x="324" y="291"/>
      <point x="318" y="273" type="curve" smooth="yes"/>
      <point x="258" y="89" type="line" smooth="yes"/>
      <point x="257" y="86"/>
      <point x="255" y="85"/>
      <point x="253" y="85" type="curve" smooth="yes"/>
      <point x="251" y="85"/>
      <point x="249" y="86"/>
      <point x="248" y="89" type="curve" smooth="yes"/>
      <point x="154" y="332" type="line" smooth="yes"/>
      <point x="151" y="340"/>
      <point x="149" y="349"/>
      <point x="149" y="358" type="curve" smooth="yes"/>
      <point x="149" y="377"/>
      <point x="154" y="393"/>
      <point x="178" y="397" type="curve" smooth="yes"/>
      <point x="189" y="399"/>
      <point x="201" y="399"/>
      <point x="201" y="402" type="curve" smooth="yes"/>
      <point x="201" y="405"/>
      <point x="186" y="405"/>
      <point x="181" y="405" type="curve" smooth="yes"/>
      <point x="153" y="405"/>
      <point x="126" y="403"/>
      <point x="98" y="403" type="curve" smooth="yes"/>
      <point x="72" y="403"/>
      <point x="50" y="405"/>
      <point x="25" y="405" type="curve" smooth="yes"/>
      <point x="18" y="405"/>
      <point x="5" y="405"/>
      <point x="5" y="402" type="curve" smooth="yes"/>
      <point x="5" y="399"/>
      <point x="17" y="399"/>
      <point x="28" y="397" type="curve" smooth="yes"/>
      <point x="47" y="394"/>
      <point x="62" y="374"/>
      <point x="72" y="349" type="curve" smooth="yes"/>
      <point x="219" y="-16" type="line"/>
      <point x="220" y="-20"/>
      <point x="223" y="-23"/>
    </contour>
  </outline>
</glyph>
<glyph name="x" format="1">
  <advance width="430"/>
  <unicode hex="0078"/>
  <outline>
    <contour>
      <point x="30" y="-4" type="curve" smooth="yes"/>
      <point x="48" y="-4"/>
      <point x="60" y="1"/>
      <point x="97" y="1" type="curve" smooth="yes"/>
      <point x="113" y="1"/>
      <point x="124" y="-1"/>
      <point x="135" y="-3" type="curve" smooth="yes"/>
      <point x="140" y="-4"/>
      <point x="158" y="-3"/>
      <point x="158" y="-1" type="curve" smooth="yes"/>
      <point x="158" y="3"/>
      <point x="145" y="5"/>
      <point x="135" y="5" type="curve" smooth="yes"/>
      <point x="107" y="8"/>
      <point x="92" y="9"/>
      <point x="91" y="18" type="curve" smooth="yes"/>
      <point x="91" y="23"/>
      <point x="95" y="30"/>
      <point x="102" y="41" type="curve" smooth="yes"/>
      <point x="198" y="180" type="line" smooth="yes"/>
      <point x="199" y="181"/>
      <point x="203" y="181"/>
      <point x="204" y="180" type="curve" smooth="yes"/>
      <point x="281" y="54" type="line" smooth="yes"/>
      <point x="288" y="43"/>
      <point x="293" y="34"/>
      <point x="293" y="26" type="curve" smooth="yes"/>
      <point x="293" y="15"/>
      <point x="282" y="5"/>
      <point x="250" y="4" type="curve" smooth="yes"/>
      <point x="235" y="3"/>
      <point x="225" y="4"/>
      <point x="225" y="-1" type="curve" smooth="yes"/>
      <point x="225" y="-1"/>
      <point x="231" y="-3"/>
      <point x="248" y="-3" type="curve" smooth="yes"/>
      <point x="271" y="-3"/>
      <point x="297" y="-3"/>
      <point x="321" y="-3" type="curve" smooth="yes"/>
      <point x="371" y="-3"/>
      <point x="364" y="-4"/>
      <point x="405" y="-4" type="curve" smooth="yes"/>
      <point x="413" y="-4"/>
      <point x="425" y="-4"/>
      <point x="425" y="-2" type="curve" smooth="yes"/>
      <point x="425" y="1"/>
      <point x="416" y="-1"/>
      <point x="406" y="1" type="curve" smooth="yes"/>
      <point x="395" y="3"/>
      <point x="388" y="11"/>
      <point x="377" y="29" type="curve" smooth="yes"/>
      <point x="249" y="235" type="line" smooth="yes"/>
      <point x="246" y="240"/>
      <point x="246" y="245"/>
      <point x="248" y="248" type="curve" smooth="yes"/>
      <point x="321" y="353" type="line" smooth="yes"/>
      <point x="343" y="384"/>
      <point x="350" y="396"/>
      <point x="389" y="396" type="curve" smooth="yes"/>
      <point x="400" y="396"/>
      <point x="412" y="398"/>
      <point x="412" y="402" type="curve" smooth="yes"/>
      <point x="412" y="405"/>
      <point x="400" y="405"/>
      <point x="392" y="405" type="curve" smooth="yes"/>
      <point x="375" y="405"/>
      <point x="366" y="403"/>
      <point x="329" y="403" type="curve" smooth="yes"/>
      <point x="313" y="403"/>
      <point x="295" y="404"/>
      <point x="285" y="404" type="curve" smooth="yes"/>
      <point x="280" y="404"/>
      <point x="262" y="405"/>
      <point x="262" y="401" type="curve" smooth="yes"/>
      <point x="262" y="397"/>
      <point x="274" y="398"/>
      <point x="285" y="397" type="curve" smooth="yes"/>
      <point x="312" y="396"/>
      <point x="326" y="393"/>
      <point x="327" y="383" type="curve" smooth="yes"/>
      <point x="327" y="378"/>
      <point x="323" y="371"/>
      <point x="316" y="360" type="curve" smooth="yes"/>
      <point x="241" y="251" type="line" smooth="yes"/>
      <point x="238" y="247"/>
      <point x="236" y="246"/>
      <point x="232" y="251" type="curve" smooth="yes"/>
      <point x="165" y="349" type="line" smooth="yes"/>
      <point x="157" y="362"/>
      <point x="152" y="374"/>
      <point x="152" y="381" type="curve" smooth="yes"/>
      <point x="152" y="392"/>
      <point x="159" y="397"/>
      <point x="180" y="399" type="curve" smooth="yes"/>
      <point x="189" y="400"/>
      <point x="198" y="400"/>
      <point x="198" y="402" type="curve" smooth="yes"/>
      <point x="198" y="404"/>
      <point x="180" y="404"/>
      <point x="175" y="404" type="curve" smooth="yes"/>
      <point x="152" y="404"/>
      <point x="154" y="404"/>
      <point x="130" y="404" type="curve" smooth="yes"/>
      <point x="81" y="404"/>
      <point x="80" y="405"/>
      <point x="41" y="405" type="curve" smooth="yes"/>
      <point x="36" y="405"/>
      <point x="18" y="405"/>
      <point x="18" y="402" type="curve" smooth="yes"/>
      <point x="18" y="399"/>
      <point x="30" y="399"/>
      <point x="38" y="397" type="curve" smooth="yes"/>
      <point x="55" y="393"/>
      <point x="64" y="384"/>
      <point x="83" y="356" type="curve" smooth="yes"/>
      <point x="189" y="200" type="line" smooth="yes"/>
      <point x="194" y="192"/>
      <point x="196" y="188"/>
      <point x="187" y="177" type="curve"/>
      <point x="101" y="56" type="line" smooth="yes"/>
      <point x="72" y="16"/>
      <point x="70" y="11"/>
      <point x="33" y="4" type="curve" smooth="yes"/>
      <point x="22" y="3"/>
      <point x="10" y="2"/>
      <point x="10" y="-2" type="curve" smooth="yes"/>
      <point x="10" y="-4"/>
      <point x="22" y="-4"/>
    </contour>
  </outline>
</glyph>
<glyph name="y" format="1">
  <advance width="438"/>
  <unicode hex="0079"/>
  <outline>
    <contour>
      <point x="91" y="-285" type="curve" smooth="yes"/>
      <point x="114" y="-285"/>
      <point x="129" y="-271"/>
      <point x="141" y="-244" type="curve"/>
      <point x="366" y="333" type="line"/>
      <point x="386" y="383"/>
      <point x="403" y="395"/>
      <point x="420" y="398" type="curve" smooth="yes"/>
      <point x="435" y="401"/>
      <point x="443" y="402"/>
      <point x="443" y="403" type="curve" smooth="yes"/>
      <point x="443" y="405"/>
      <point x="433" y="405"/>
      <point x="423" y="405" type="curve" smooth="yes"/>
      <point x="404" y="405"/>
      <point x="399" y="404"/>
      <point x="364" y="404" type="curve" smooth="yes"/>
      <point x="329" y="404"/>
      <point x="326" y="405"/>
      <point x="311" y="405" type="curve" smooth="yes"/>
      <point x="302" y="405"/>
      <point x="291" y="405"/>
      <point x="291" y="403" type="curve" smooth="yes"/>
      <point x="291" y="402"/>
      <point x="297" y="401"/>
      <point x="314" y="400" type="curve" smooth="yes"/>
      <point x="343" y="398"/>
      <point x="358" y="384"/>
      <point x="358" y="358" type="curve" smooth="yes"/>
      <point x="358" y="347"/>
      <point x="355" y="330"/>
      <point x="350" y="317" type="curve" smooth="yes"/>
      <point x="250" y="65" type="line"/>
      <point x="249" y="63"/>
      <point x="249" y="62"/>
      <point x="247" y="62" type="curve" smooth="yes"/>
      <point x="246" y="62"/>
      <point x="246" y="63"/>
      <point x="245" y="65" type="curve" smooth="yes"/>
      <point x="147" y="328" type="line" smooth="yes"/>
      <point x="144" y="336"/>
      <point x="143" y="346"/>
      <point x="143" y="355" type="curve" smooth="yes"/>
      <point x="143" y="374"/>
      <point x="150" y="395"/>
      <point x="170" y="398" type="curve" smooth="yes"/>
      <point x="181" y="400"/>
      <point x="193" y="400"/>
      <point x="193" y="403" type="curve" smooth="yes"/>
      <point x="193" y="405"/>
      <point x="180" y="405"/>
      <point x="173" y="405" type="curve" smooth="yes"/>
      <point x="134" y="405"/>
      <point x="133" y="404"/>
      <point x="98" y="404" type="curve" smooth="yes"/>
      <point x="63" y="404"/>
      <point x="64" y="405"/>
      <point x="25" y="405" type="curve" smooth="yes"/>
      <point x="18" y="405"/>
      <point x="5" y="405"/>
      <point x="5" y="403" type="curve" smooth="yes"/>
      <point x="5" y="400"/>
      <point x="12" y="397"/>
      <point x="23" y="395" type="curve" smooth="yes"/>
      <point x="40" y="392"/>
      <point x="55" y="381"/>
      <point x="63" y="357" type="curve" smooth="yes"/>
      <point x="203" y="8" type="line"/>
      <point x="206" y="0"/>
      <point x="207" y="-10"/>
      <point x="207" y="-21" type="curve" smooth="yes"/>
      <point x="207" y="-30"/>
      <point x="206" y="-38"/>
      <point x="204" y="-44" type="curve" smooth="yes"/>
      <point x="145" y="-189" type="line"/>
      <point x="139" y="-202"/>
      <point x="132" y="-205"/>
      <point x="124" y="-205" type="curve" smooth="yes"/>
      <point x="113" y="-205"/>
      <point x="99" y="-199"/>
      <point x="84" y="-199" type="curve" smooth="yes"/>
      <point x="63" y="-199"/>
      <point x="51" y="-220"/>
      <point x="51" y="-244" type="curve" smooth="yes"/>
      <point x="51" y="-274"/>
      <point x="65" y="-285"/>
    </contour>
  </outline>
</glyph>
<glyph name="asciitilde" format="1">
  <advance width="500"/>
  <unicode hex="007E"/>
  <outline>
    <contour>
      <point x="337" y="278" type="curve" smooth="yes"/>
      <point x="382" y="278"/>
      <point x="435" y="334"/>
      <point x="435" y="356" type="curve" smooth="yes"/>
      <point x="435" y="359"/>
      <point x="433" y="360"/>
      <point x="431" y="360" type="curve" smooth="yes"/>
      <point x="430" y="360"/>
      <point x="392" y="286"/>
      <point x="335" y="286" type="curve" smooth="yes"/>
      <point x="313" y="286"/>
      <point x="288" y="305"/>
      <point x="262" y="325" type="curve" smooth="yes"/>
      <point x="233" y="347"/>
      <point x="201" y="372"/>
      <point x="167" y="372" type="curve" smooth="yes"/>
      <point x="97" y="372"/>
      <point x="51" y="304"/>
      <point x="51" y="286" type="curve"/>
      <point x="51" y="284"/>
      <point x="53" y="282"/>
      <point x="54" y="282" type="curve" smooth="yes"/>
      <point x="61" y="282"/>
      <point x="93" y="362"/>
      <point x="167" y="362" type="curve" smooth="yes"/>
      <point x="197" y="362"/>
      <point x="224" y="341"/>
      <point x="252" y="320" type="curve" smooth="yes"/>
      <point x="280" y="299"/>
      <point x="308" y="278"/>
    </contour>
  </outline>
</glyph>
